<svg xmlns="http://www.w3.org/2000/svg" width="26.536" height="20.945" viewBox="0 0 26.536 20.945">
  <path id="Icon_ionic-ios-arrow-round-forward" data-name="Icon ionic-ios-arrow-round-forward" d="M24.8,11.653a1.617,1.617,0,0,0-.009,2.007l5.6,6.643H9.064a1.44,1.44,0,0,0,0,2.836H30.383l-5.6,6.643a1.63,1.63,0,0,0,.009,2.007,1.067,1.067,0,0,0,1.687-.011l7.595-9.054h0a1.643,1.643,0,0,0,.249-.447,1.63,1.63,0,0,0-.249-1.538l-7.595-9.054A1.052,1.052,0,0,0,24.8,11.653Z" transform="translate(-7.875 -11.252)" fill="#00C64B"/>
</svg>
