<svg xmlns="http://www.w3.org/2000/svg" width="144.274" height="38.316" viewBox="0 0 144.274 38.316">
  <g id="Logo" transform="translate(-110.025 -70.558)">
    <rect id="Rectangle_40" data-name="Rectangle 40" width="35.316" height="35.314" transform="translate(146.841 72.058)" fill="none" stroke="#000" stroke-miterlimit="10" stroke-width="3"/>
    <g id="Groupe_13" data-name="Groupe 13" transform="translate(155.757 80.132)">
      <path id="Tracé_11" data-name="Tracé 11" d="M199.116,107.484l6.746-19.133h3.992l6.747,19.133h-4.249l-1.416-4.249h-6.489l-1.468,4.249Zm6.361-7.287h4.481l-2.189-6.489h-.052Z" transform="translate(-199.116 -88.351)"/>
    </g>
    <circle id="Ellipse_2" data-name="Ellipse 2" cx="2.56" cy="2.56" r="2.56" transform="translate(172.53 76.547)" fill="blue" opacity="0.996" style="isolation: isolate"/>
    <rect id="Rectangle_41" data-name="Rectangle 41" width="35.316" height="35.314" transform="translate(217.483 72.058)" fill="none" stroke="#000" stroke-miterlimit="10" stroke-width="3"/>
    <g id="Groupe_14" data-name="Groupe 14" transform="translate(226.824 79.864)">
      <path id="Tracé_12" data-name="Tracé 12" d="M339.819,97.665c0-6.618,3.837-9.863,8.652-9.863s6.9,2.575,7.726,6l-3.966,1.159c-.618-2.189-1.545-3.682-3.785-3.682-2.884,0-4.429,2.446-4.429,6.386,0,4.017,1.6,6.54,4.481,6.54,2.24,0,3.347-1.416,4.017-4.017l3.94.876c-.927,3.837-3.193,6.515-7.983,6.515C343.5,107.579,339.819,104.386,339.819,97.665Z" transform="translate(-339.819 -87.802)"/>
    </g>
    <circle id="Ellipse_3" data-name="Ellipse 3" cx="2.56" cy="2.56" r="2.56" transform="translate(221.99 97.765)" fill="red" opacity="0.996" style="isolation: isolate"/>
    <rect id="Rectangle_42" data-name="Rectangle 42" width="35.316" height="35.316" transform="translate(182.158 72.059)" fill="none" stroke="#000" stroke-miterlimit="10" stroke-width="3"/>
    <g id="Groupe_15" data-name="Groupe 15" transform="translate(192.827 80.189)">
      <path id="Tracé_13" data-name="Tracé 13" d="M273.389,107.572V88.516h6.927c4.069,0,7.777,1.081,7.777,6.1,0,5.124-4.018,6.18-7.829,6.18h-2.7v6.773Zm4.172-10.017h2.858c2.6,0,3.58-1,3.58-2.832,0-1.777-.953-2.781-3.58-2.781h-2.858Z" transform="translate(-273.389 -88.516)"/>
    </g>
    <circle id="Ellipse_4" data-name="Ellipse 4" cx="2.56" cy="2.56" r="2.56" transform="translate(207.943 97.748)" fill="#ffed00" opacity="0.996" style="isolation: isolate"/>
    <rect id="Rectangle_43" data-name="Rectangle 43" width="35.316" height="35.314" transform="translate(111.525 72.058)" fill="none" stroke="#000" stroke-miterlimit="10" stroke-width="3"/>
    <g id="Groupe_16" data-name="Groupe 16" transform="translate(120.866 79.828)">
      <path id="Tracé_14" data-name="Tracé 14" d="M130.022,97.577c0-6.618,3.837-9.863,8.652-9.863s6.9,2.575,7.726,6l-3.966,1.159c-.618-2.189-1.545-3.682-3.785-3.682-2.884,0-4.429,2.446-4.429,6.386,0,4.017,1.6,6.54,4.481,6.54,2.241,0,3.347-1.416,4.018-4.017l3.939.876c-.927,3.837-3.193,6.515-7.983,6.515C133.7,107.491,130.022,104.3,130.022,97.577Z" transform="translate(-130.022 -87.714)"/>
    </g>
    <circle id="Ellipse_5" data-name="Ellipse 5" cx="2.56" cy="2.56" r="2.56" transform="translate(116.048 76.565)" fill="lime" opacity="0.996" style="isolation: isolate"/>
  </g>
</svg>
