<svg xmlns="http://www.w3.org/2000/svg" width="26.196" height="26.19" viewBox="0 0 26.196 26.19">
  <path id="Icon_awesome-instagram" data-name="Icon awesome-instagram" d="M13.1,8.618a6.715,6.715,0,1,0,6.715,6.715A6.7,6.7,0,0,0,13.1,8.618Zm0,11.08a4.366,4.366,0,1,1,4.366-4.366A4.373,4.373,0,0,1,13.1,19.7ZM21.651,8.343a1.566,1.566,0,1,1-1.566-1.566A1.563,1.563,0,0,1,21.651,8.343ZM26.1,9.933a7.751,7.751,0,0,0-2.116-5.488A7.8,7.8,0,0,0,18.5,2.33c-2.162-.123-8.643-.123-10.806,0A7.791,7.791,0,0,0,2.2,4.439,7.776,7.776,0,0,0,.087,9.927c-.123,2.162-.123,8.643,0,10.806A7.751,7.751,0,0,0,2.2,26.22,7.812,7.812,0,0,0,7.69,28.336c2.162.123,8.643.123,10.806,0a7.751,7.751,0,0,0,5.488-2.116A7.8,7.8,0,0,0,26.1,20.733c.123-2.162.123-8.638,0-10.8Zm-2.793,13.12a4.42,4.42,0,0,1-2.49,2.49c-1.724.684-5.815.526-7.72.526s-6,.152-7.72-.526a4.42,4.42,0,0,1-2.49-2.49c-.684-1.724-.526-5.815-.526-7.72s-.152-6,.526-7.72a4.42,4.42,0,0,1,2.49-2.49C7.1,4.439,11.191,4.6,13.1,4.6s6-.152,7.72.526a4.42,4.42,0,0,1,2.49,2.49c.684,1.724.526,5.815.526,7.72S23.989,21.335,23.305,23.053Z" transform="translate(0.005 -2.238)"/>
</svg>
