<svg xmlns="http://www.w3.org/2000/svg" width="29.922" height="24.302" viewBox="0 0 29.922 24.302">
  <path id="Icon_awesome-twitter" data-name="Icon awesome-twitter" d="M26.846,9.437c.019.266.019.532.019.8,0,8.107-6.17,17.448-17.448,17.448A17.33,17.33,0,0,1,0,24.93a12.686,12.686,0,0,0,1.481.076,12.281,12.281,0,0,0,7.613-2.62A6.143,6.143,0,0,1,3.36,18.133a7.734,7.734,0,0,0,1.158.095,6.486,6.486,0,0,0,1.614-.209A6.133,6.133,0,0,1,1.215,12v-.076a6.176,6.176,0,0,0,2.772.778,6.142,6.142,0,0,1-1.9-8.2,17.431,17.431,0,0,0,12.645,6.417,6.923,6.923,0,0,1-.152-1.4,6.138,6.138,0,0,1,10.613-4.2,12.074,12.074,0,0,0,3.892-1.481,6.116,6.116,0,0,1-2.7,3.379,12.294,12.294,0,0,0,3.531-.949,13.182,13.182,0,0,1-3.076,3.171Z" transform="translate(0 -3.381)"/>
</svg>
