<svg id="Menu_icon" data-name="Menu icon" xmlns="http://www.w3.org/2000/svg" width="36.704" height="27.272" viewBox="0 0 36.704 27.272">
  <path id="Tracé_3146" data-name="Tracé 3146" d="M51.606,31.909H83.9a2.2,2.2,0,0,0,2.2-2.2h0a2.2,2.2,0,0,0-2.2-2.2H51.606a2.2,2.2,0,0,0-2.2,2.2h0A2.17,2.17,0,0,0,51.606,31.909Z" transform="translate(-49.4 -27.5)"/>
  <path id="Tracé_3147" data-name="Tracé 3147" d="M51.606,60.109H67.242a2.2,2.2,0,0,0,2.2-2.2h0a2.2,2.2,0,0,0-2.2-2.2H51.606a2.2,2.2,0,0,0-2.2,2.2h0A2.17,2.17,0,0,0,51.606,60.109Z" transform="translate(-32.743 -44.187)"/>
  <path id="Tracé_3148" data-name="Tracé 3148" d="M51.565,87.909h23.8a2.2,2.2,0,0,0,2.2-2.2h0a2.2,2.2,0,0,0-2.2-2.2H51.606a2.2,2.2,0,0,0-2.2,2.2h0A2.136,2.136,0,0,0,51.565,87.909Z" transform="translate(-40.867 -60.637)"/>
</svg>
