<svg xmlns="http://www.w3.org/2000/svg" width="133.292" height="133.369" viewBox="0 0 133.292 133.369">
  <g id="_43" data-name="43" transform="translate(-3257.809 -140.905)">
    <rect id="Rectangle_103" data-name="Rectangle 103" width="32.573" height="65.258" transform="translate(3291.882 174.927)" fill="none" stroke="#000" stroke-miterlimit="10" stroke-width="3"/>
    <g id="Groupe_67" data-name="Groupe 67" transform="translate(3300.105 182.374)">
      <path id="Tracé_62" data-name="Tracé 62" d="M3346.9,245.867l6.223-17.648h3.681l6.223,17.648h-3.919l-1.306-3.919h-5.985l-1.353,3.919Zm5.866-6.722h4.133l-2.019-5.985h-.047Z" transform="translate(-3346.9 -228.219)"/>
    </g>
    <circle id="Ellipse_19" data-name="Ellipse 19" cx="2.361" cy="2.361" r="2.361" transform="translate(3315.576 179.067)" fill="blue" opacity="0.996" style="isolation: isolate"/>
    <rect id="Rectangle_104" data-name="Rectangle 104" width="32.573" height="65.103" transform="translate(3357.028 142.405)" fill="none" stroke="#000" stroke-miterlimit="10" stroke-width="3"/>
    <g id="Groupe_68" data-name="Groupe 68" transform="translate(3365.643 182.118)">
      <path id="Tracé_63" data-name="Tracé 63" d="M3487.738,236.767c0-6.1,3.539-9.1,7.98-9.1s6.365,2.375,7.125,5.534l-3.657,1.069c-.57-2.019-1.425-3.4-3.491-3.4-2.66,0-4.085,2.256-4.085,5.89,0,3.705,1.472,6.033,4.133,6.033,2.066,0,3.087-1.306,3.705-3.705l3.634.808c-.855,3.539-2.945,6.009-7.363,6.009C3491.134,245.911,3487.738,242.966,3487.738,236.767Z" transform="translate(-3487.738 -227.67)"/>
    </g>
    <circle id="Ellipse_20" data-name="Ellipse 20" cx="2.361" cy="2.361" r="2.361" transform="translate(3361.184 198.629)" fill="red" opacity="0.996" style="isolation: isolate"/>
    <rect id="Rectangle_105" data-name="Rectangle 105" width="32.573" height="65.255" transform="translate(3324.455 174.929)" fill="none" stroke="#000" stroke-miterlimit="10" stroke-width="3"/>
    <g id="Groupe_69" data-name="Groupe 69" transform="translate(3334.296 182.451)">
      <path id="Tracé_64" data-name="Tracé 64" d="M3420.308,245.96V228.384h6.389c3.753,0,7.173,1,7.173,5.629,0,4.727-3.706,5.7-7.221,5.7h-2.494v6.247Zm3.848-9.239h2.636c2.4,0,3.3-.927,3.3-2.613,0-1.639-.879-2.565-3.3-2.565h-2.636Z" transform="translate(-3420.308 -228.384)"/>
    </g>
    <circle id="Ellipse_21" data-name="Ellipse 21" cx="2.361" cy="2.361" r="2.361" transform="translate(3348.237 198.646)" fill="#ffed00" opacity="0.996" style="isolation: isolate"/>
    <rect id="Rectangle_106" data-name="Rectangle 106" width="32.573" height="32.589" transform="translate(3259.309 240.185)" fill="none" stroke="#000" stroke-miterlimit="10" stroke-width="3"/>
    <g id="Groupe_70" data-name="Groupe 70" transform="translate(3267.924 247.351)">
      <path id="Tracé_65" data-name="Tracé 65" d="M3277.805,376.824c0-6.1,3.539-9.1,7.98-9.1s6.365,2.375,7.126,5.534l-3.658,1.069c-.57-2.019-1.425-3.4-3.491-3.4-2.66,0-4.085,2.256-4.085,5.89,0,3.706,1.472,6.033,4.133,6.033,2.066,0,3.088-1.306,3.705-3.705l3.634.808c-.855,3.539-2.945,6.009-7.363,6.009C3281.2,385.968,3277.805,383.023,3277.805,376.824Z" transform="translate(-3277.805 -367.727)"/>
    </g>
    <circle id="Ellipse_22" data-name="Ellipse 22" cx="2.361" cy="2.361" r="2.361" transform="translate(3263.481 244.341)" fill="lime" opacity="0.996" style="isolation: isolate"/>
  </g>
</svg>
