<svg xmlns="http://www.w3.org/2000/svg" width="133.066" height="133.104" viewBox="0 0 133.066 133.104">
  <g id="_55" data-name="55" transform="translate(-4166.017 -210.875)">
    <rect id="Rectangle_99" data-name="Rectangle 99" width="32.516" height="97.4" transform="translate(4200.033 245.079)" fill="none" stroke="#000" stroke-miterlimit="10" stroke-width="3"/>
    <g id="Groupe_63" data-name="Groupe 63" transform="translate(4208.242 252.513)">
      <path id="Tracé_58" data-name="Tracé 58" d="M4255.107,316.32l6.212-17.617h3.675l6.212,17.617h-3.912l-1.3-3.912h-5.975l-1.352,3.912Zm5.857-6.71h4.125l-2.015-5.975h-.047Z" transform="translate(-4255.107 -298.703)"/>
    </g>
    <circle id="Ellipse_15" data-name="Ellipse 15" cx="2.357" cy="2.357" r="2.357" transform="translate(4223.686 249.213)" fill="blue" opacity="0.996" style="isolation: isolate"/>
    <rect id="Rectangle_100" data-name="Rectangle 100" width="32.516" height="97.597" transform="translate(4265.066 212.375)" fill="none" stroke="#000" stroke-miterlimit="10" stroke-width="3"/>
    <g id="Groupe_64" data-name="Groupe 64" transform="translate(4273.666 284.626)">
      <path id="Tracé_59" data-name="Tracé 59" d="M4395.819,376.852c0-6.094,3.533-9.081,7.967-9.081s6.354,2.371,7.113,5.525l-3.651,1.067c-.569-2.016-1.423-3.39-3.485-3.39-2.655,0-4.078,2.252-4.078,5.88,0,3.7,1.469,6.022,4.125,6.022,2.063,0,3.082-1.3,3.7-3.7l3.627.806c-.854,3.533-2.94,6-7.35,6C4399.209,385.98,4395.819,383.04,4395.819,376.852Z" transform="translate(-4395.819 -367.771)"/>
    </g>
    <circle id="Ellipse_16" data-name="Ellipse 16" cx="2.357" cy="2.357" r="2.357" transform="translate(4269.215 301.108)" fill="red" opacity="0.996" style="isolation: isolate"/>
    <rect id="Rectangle_101" data-name="Rectangle 101" width="32.516" height="32.516" transform="translate(4232.549 245.079)" fill="none" stroke="#000" stroke-miterlimit="10" stroke-width="3"/>
    <g id="Groupe_65" data-name="Groupe 65" transform="translate(4242.373 252.565)">
      <path id="Tracé_60" data-name="Tracé 60" d="M4328.516,316.36V298.814h6.377c3.747,0,7.161,1,7.161,5.619,0,4.718-3.7,5.691-7.208,5.691h-2.489v6.236Zm3.841-9.223h2.632c2.394,0,3.3-.925,3.3-2.608,0-1.636-.877-2.56-3.3-2.56h-2.632Z" transform="translate(-4328.516 -298.814)"/>
    </g>
    <circle id="Ellipse_17" data-name="Ellipse 17" cx="2.357" cy="2.357" r="2.357" transform="translate(4256.291 268.732)" fill="#ffed00" opacity="0.996" style="isolation: isolate"/>
    <rect id="Rectangle_102" data-name="Rectangle 102" width="32.516" height="64.909" transform="translate(4167.517 245.079)" fill="none" stroke="#000" stroke-miterlimit="10" stroke-width="3"/>
    <g id="Groupe_66" data-name="Groupe 66" transform="translate(4176.117 252.233)">
      <path id="Tracé_61" data-name="Tracé 61" d="M4186.013,307.181c0-6.094,3.533-9.081,7.966-9.081s6.354,2.371,7.113,5.525l-3.651,1.067c-.569-2.016-1.423-3.39-3.485-3.39-2.655,0-4.078,2.252-4.078,5.88,0,3.7,1.469,6.022,4.125,6.022,2.062,0,3.082-1.3,3.7-3.7l3.627.806c-.854,3.533-2.941,6-7.351,6C4189.4,316.31,4186.013,313.369,4186.013,307.181Z" transform="translate(-4186.013 -298.1)"/>
    </g>
    <circle id="Ellipse_18" data-name="Ellipse 18" cx="2.357" cy="2.357" r="2.357" transform="translate(4171.681 249.229)" fill="lime" opacity="0.996" style="isolation: isolate"/>
  </g>
</svg>
