<svg xmlns="http://www.w3.org/2000/svg" width="133.008" height="133.105" viewBox="0 0 133.008 133.105">
  <g id="_33" data-name="33" transform="translate(-2347.783 -1050.378)">
    <rect id="Rectangle_107" data-name="Rectangle 107" width="32.502" height="32.502" transform="translate(2381.785 1051.878)" fill="none" stroke="#000" stroke-miterlimit="10" stroke-width="3"/>
    <g id="Groupe_71" data-name="Groupe 71" transform="translate(2389.99 1059.308)">
      <path id="Tracé_66" data-name="Tracé 66" d="M2436.874,1085.475l6.209-17.609h3.674l6.209,17.609h-3.91l-1.3-3.91h-5.972l-1.351,3.91Zm5.854-6.707h4.124l-2.015-5.972h-.047Z" transform="translate(-2436.874 -1067.866)"/>
    </g>
    <circle id="Ellipse_23" data-name="Ellipse 23" cx="2.356" cy="2.356" r="2.356" transform="translate(2405.427 1056.009)" fill="blue" opacity="0.996" style="isolation: isolate"/>
    <rect id="Rectangle_108" data-name="Rectangle 108" width="32.502" height="65.027" transform="translate(2446.789 1116.956)" fill="none" stroke="#000" stroke-miterlimit="10" stroke-width="3"/>
    <g id="Groupe_72" data-name="Groupe 72" transform="translate(2455.385 1156.648)">
      <path id="Tracé_67" data-name="Tracé 67" d="M2577.586,1286.392c0-6.091,3.531-9.077,7.963-9.077s6.352,2.37,7.11,5.522l-3.65,1.066c-.568-2.015-1.422-3.389-3.484-3.389-2.654,0-4.076,2.251-4.076,5.878,0,3.7,1.469,6.019,4.124,6.019,2.062,0,3.081-1.3,3.7-3.7l3.626.806c-.853,3.531-2.939,6-7.347,6C2580.975,1295.516,2577.586,1292.577,2577.586,1286.392Z" transform="translate(-2577.586 -1277.315)"/>
    </g>
    <circle id="Ellipse_24" data-name="Ellipse 24" cx="2.356" cy="2.356" r="2.356" transform="translate(2450.937 1173.123)" fill="red" opacity="0.996" style="isolation: isolate"/>
    <rect id="Rectangle_109" data-name="Rectangle 109" width="32.502" height="64.978" transform="translate(2414.287 1084.38)" fill="none" stroke="#000" stroke-miterlimit="10" stroke-width="3"/>
    <g id="Groupe_73" data-name="Groupe 73" transform="translate(2424.107 1091.862)">
      <path id="Tracé_68" data-name="Tracé 68" d="M2510.283,1155.45v-17.537h6.374c3.745,0,7.158.995,7.158,5.617,0,4.716-3.7,5.688-7.205,5.688h-2.489v6.233Zm3.839-9.219h2.63c2.394,0,3.295-.924,3.295-2.607,0-1.635-.876-2.56-3.295-2.56h-2.63Z" transform="translate(-2510.283 -1137.913)"/>
    </g>
    <circle id="Ellipse_25" data-name="Ellipse 25" cx="2.356" cy="2.356" r="2.356" transform="translate(2438.018 1108.022)" fill="#ffed00" opacity="0.996" style="isolation: isolate"/>
    <rect id="Rectangle_110" data-name="Rectangle 110" width="32.502" height="97.508" transform="translate(2349.283 1084.38)" fill="none" stroke="#000" stroke-miterlimit="10" stroke-width="3"/>
    <g id="Groupe_74" data-name="Groupe 74" transform="translate(2357.88 1156.52)">
      <path id="Tracé_69" data-name="Tracé 69" d="M2367.78,1286.117c0-6.091,3.532-9.077,7.963-9.077s6.352,2.37,7.11,5.522l-3.65,1.067c-.569-2.015-1.422-3.389-3.483-3.389-2.654,0-4.076,2.251-4.076,5.878,0,3.7,1.469,6.019,4.124,6.019,2.062,0,3.081-1.3,3.7-3.7l3.625.806c-.853,3.531-2.938,6-7.347,6C2371.169,1295.242,2367.78,1292.3,2367.78,1286.117Z" transform="translate(-2367.78 -1277.04)"/>
    </g>
    <circle id="Ellipse_26" data-name="Ellipse 26" cx="2.356" cy="2.356" r="2.356" transform="translate(2353.446 1153.517)" fill="lime" opacity="0.996" style="isolation: isolate"/>
  </g>
</svg>
