<svg xmlns="http://www.w3.org/2000/svg" width="172.244" height="42.993" viewBox="0 0 172.244 42.993">
  <g id="Mécène2" transform="translate(-54.853 -566.308)">
    <path id="Tracé_3250" data-name="Tracé 3250" d="M147.734,587.926a17.373,17.373,0,0,1-.851,6.125,21.671,21.671,0,0,1-12.365,13.6,20.34,20.34,0,0,1-10.752,1.446c-.668-.1-1.339-.14-2.005-.283a2.165,2.165,0,0,1-1.814-1.8,2.119,2.119,0,0,1,1.242-2.07,2.349,2.349,0,0,1,1.514-.045,14.665,14.665,0,0,0,4.21.407,17.761,17.761,0,0,0,8.56-2.633,17.572,17.572,0,0,0,6.139-6.42,18.347,18.347,0,0,0,1.926-5.443,17.239,17.239,0,0,0,.219-3.8,16.4,16.4,0,0,0-2.245-7.849,17.416,17.416,0,0,0-9.132-7.791,16.394,16.394,0,0,0-7.67-1.005,17.3,17.3,0,0,0-9.453,3.872,46.074,46.074,0,0,0-5.269,5.806c-2.758,3.207-5.446,6.473-8.186,9.7a16.732,16.732,0,0,1-2.9,3.092,6.125,6.125,0,1,1-6.622-10.3,5.245,5.245,0,0,1,4.531-.644,1.682,1.682,0,0,1,1.032,1.7,1.777,1.777,0,0,1-1.628,1.553,3.907,3.907,0,0,0-1.751.189,2.726,2.726,0,0,0-1.737,2.494A2.837,2.837,0,0,0,94.51,590.3a2.586,2.586,0,0,0,3.022-.9c3.371-4.175,6.693-8.389,10.044-12.581a32.709,32.709,0,0,1,5.283-5.788,22.964,22.964,0,0,1,6.929-3.714,21.4,21.4,0,0,1,8.924-.893,20.426,20.426,0,0,1,9.59,3.522,21.447,21.447,0,0,1,7.542,8.9A20.12,20.12,0,0,1,147.734,587.926Z" transform="translate(-22.499 0)"/>
    <path id="Tracé_3251" data-name="Tracé 3251" d="M115.126,615.516a9.839,9.839,0,0,1-3.736-.478,1.961,1.961,0,0,1,.927-3.78,25.892,25.892,0,0,0,2.993.316,10.6,10.6,0,0,0,9.328-6.432,10.352,10.352,0,0,0,.646-5.664,10.387,10.387,0,0,0-17.932-5.287q-4.908,5.232-9.849,10.432c-1.65,1.746-3.274,3.516-4.957,5.229A11.115,11.115,0,0,1,86.719,613a12.092,12.092,0,0,1-14.46-9.831,11.435,11.435,0,0,1,1.14-7.493,11.706,11.706,0,0,1,7.467-6.1,11.308,11.308,0,0,1,5.641-.215,1.7,1.7,0,0,1,1.246,2.026,1.778,1.778,0,0,1-2.259,1.322,7.394,7.394,0,0,0-4.4.427,8.6,8.6,0,0,0-.7,15.773,8.219,8.219,0,0,0,4.94.8,9.407,9.407,0,0,0,5.888-3.5c1.874-2.173,3.828-4.278,5.748-6.411,2.579-2.865,5.125-5.76,7.749-8.583a14.409,14.409,0,0,1,13.576-4.026,14.134,14.134,0,0,1,10.277,9.165,13.673,13.673,0,0,1,.663,7.079,13.953,13.953,0,0,1-5.114,8.883,14.347,14.347,0,0,1-5.864,2.894A9.161,9.161,0,0,1,115.126,615.516Z" transform="translate(-11.242 -13.38)"/>
    <path id="Tracé_3252" data-name="Tracé 3252" d="M73.135,576.369a14.6,14.6,0,0,1,3.226.275A2,2,0,0,1,77.8,578.4a1.836,1.836,0,0,1-1.708,1.686c-.926.014-1.818-.265-2.75-.28a14.382,14.382,0,0,0-11,4.555,14.556,14.556,0,0,0,5.022,23.444,13.807,13.807,0,0,0,10.521.206,17.18,17.18,0,0,0,6.087-4.055c1.692-1.67,3.372-3.352,5.062-5.023,3.291-3.255,6.463-6.627,9.791-9.84a6.839,6.839,0,0,1,7.083-1.657,6.943,6.943,0,0,1,4.895,5.013,7.183,7.183,0,0,1-3.867,8.434,7.593,7.593,0,0,1-4.3.628,2.3,2.3,0,0,1-2.145-1.351,1.911,1.911,0,0,1,.344-2.1,1.835,1.835,0,0,1,1.9-.555,3.283,3.283,0,0,0,4.084-1.937,3.24,3.24,0,0,0-5.291-3.5c-2.227,2.128-4.455,4.256-6.711,6.353-3.6,3.344-7.028,6.867-10.752,10.072a16.124,16.124,0,0,1-6.174,3.195,17.415,17.415,0,0,1-6.312.671A17.789,17.789,0,0,1,61.036,607.9a18.031,18.031,0,0,1-5-7.186,17.345,17.345,0,0,1-1.06-8.334,17.791,17.791,0,0,1,5.378-10.959,17.454,17.454,0,0,1,6.634-4.087A17.007,17.007,0,0,1,73.135,576.369Z" transform="translate(0 -6.559)"/>
    <path id="Tracé_3253" data-name="Tracé 3253" d="M428.144,593a11.878,11.878,0,0,0,.509,23.706,12.573,12.573,0,0,0,10.173-4.214c.3-.321.285-.464-.081-.711-1.022-.687-2.02-1.409-3.011-2.138-.232-.171-.346-.17-.543.049a10.3,10.3,0,0,1-1.065,1.023,7.244,7.244,0,0,1-11.795-3.566c-.15-.5-.127-.667.462-.66,2.9.027,5.794.012,8.692.012,2.938,0,5.877,0,8.815,0,.35,0,.538-.025.58-.471A11.708,11.708,0,0,0,428.144,593Zm-5.778,9.627c.321-2.734,3.514-5.4,6.589-5.512a7.231,7.231,0,0,1,7.133,5.512Z" transform="translate(-236.73 -17.411)"/>
    <path id="Tracé_3254" data-name="Tracé 3254" d="M286.091,616.974c-2.4,0-4.808-.011-7.212.011-.436,0-.552-.113-.54-.545.032-1.129.041-2.261,0-3.389-.018-.477.118-.576.573-.574,4.5.017,9,.011,13.5.011.185,0,.37,0,.555,0a1.519,1.519,0,0,0,.484-2.987c-1.712-.63-3.426-1.252-5.139-1.878-2.021-.74-4.048-1.465-6.06-2.226a5.985,5.985,0,0,1,2.063-11.586c4.027-.021,8.055,0,12.082-.016.4,0,.472.122.464.485-.024,1.109-.039,2.22,0,3.328.019.518-.084.683-.651.678-3.842-.031-7.685-.019-11.527-.015a1.523,1.523,0,0,0-1.7,1.653,1.592,1.592,0,0,0,1.22,1.385q3.927,1.428,7.85,2.868c1.1.4,2.2.79,3.287,1.215a6.026,6.026,0,0,1,3.956,6.052,6.1,6.1,0,0,1-4.713,5.361,6.581,6.581,0,0,1-1.588.172Q289.543,616.972,286.091,616.974Z" transform="translate(-145.984 -17.954)"/>
    <path id="Tracé_3255" data-name="Tracé 3255" d="M504.24,616.979c-2.342,0-4.684.013-7.026,0a6.1,6.1,0,0,1-6.135-6.081,6.183,6.183,0,0,1,4.258-5.618q5.485-2,10.959-4.023a1.485,1.485,0,0,0,1.008-2.04,1.556,1.556,0,0,0-1.583-.944c-3.842.008-7.683-.008-11.525.017-.526,0-.7-.092-.675-.658.054-1.127.032-2.259.008-3.388-.008-.362.11-.44.451-.439,4.047.011,8.094-.01,12.141.015a5.983,5.983,0,0,1,1.988,11.595c-3.592,1.33-7.192,2.636-10.789,3.954a6.39,6.39,0,0,0-.687.267,1.478,1.478,0,0,0-.8,1.59,1.458,1.458,0,0,0,1.264,1.246,4.824,4.824,0,0,0,.676.026c4.56,0,9.121.007,13.682-.009.439,0,.609.073.591.562-.042,1.108-.036,2.219,0,3.327.014.469-.092.626-.6.62C509.047,616.964,506.643,616.98,504.24,616.979Z" transform="translate(-284.953 -17.959)"/>
    <path id="Tracé_3256" data-name="Tracé 3256" d="M368.119,601.41q0,3.2,0,6.409a9.032,9.032,0,0,1-8.165,9.29,13.477,13.477,0,0,1-5.971-.426,8.807,8.807,0,0,1-6.332-8.647c-.015-4.314,0-8.628,0-12.942,0-1.3,0-1.3,1.288-1.3,1.007,0,2.015.031,3.02-.014.488-.021.557.145.556.583-.016,4.4-.007,8.792-.009,13.188a6.883,6.883,0,0,0,.259,2.009,4.455,4.455,0,0,0,3.6,3.227,7.466,7.466,0,0,0,2.879.028A4.579,4.579,0,0,0,363.2,608.5c.04-.47.04-.944.041-1.416,0-4.252.008-8.5-.008-12.757,0-.424.093-.557.536-.545,1.273.032,2.548.028,3.821,0,.432-.01.548.109.544.543C368.108,596.685,368.12,599.048,368.119,601.41Z" transform="translate(-191.257 -17.944)"/>
  </g>
</svg>
