<svg xmlns="http://www.w3.org/2000/svg" width="233.417" height="83.663" viewBox="0 0 233.417 83.663">
  <g id="Mécène5" transform="translate(-393.612 -241.718)">
    <g id="Groupe_1654" data-name="Groupe 1654" transform="translate(393.612 241.718)">
      <path id="Tracé_3366" data-name="Tracé 3366" d="M415.092,267.031l-.914.078a6.2,6.2,0,0,1,3.424-2.35,2.029,2.029,0,0,1,1.394.263,11.949,11.949,0,0,0,8.7,1.729,6.32,6.32,0,0,1,5.985,2.059,16.957,16.957,0,0,1,3.784,5.9,13.234,13.234,0,0,0,.583,1.3,6.318,6.318,0,0,0,5.567,3.657c1.8.122,3.6.151,5.4.247a9.593,9.593,0,0,1,9.275,7.609,12.061,12.061,0,0,1-2.747,10.531,26.914,26.914,0,0,1-10.147,7.556c-1.9.826-1.578,1.959-.479,2.878a20.5,20.5,0,0,0,2.272,1.485c.422.267.857.515,1.285.771l-.06.2a2.936,2.936,0,0,1-.715.043,12.039,12.039,0,0,1-7.14-3.788,4.705,4.705,0,0,1-.448-.628.931.931,0,0,0-1.275-.417,5.842,5.842,0,0,0-1.457.891,26.352,26.352,0,0,0-5.927,7.423c-.608,1.173-1.337,2.285-2.041,3.405a5.262,5.262,0,0,1-.786.884,1.435,1.435,0,0,1-1.632.308c-1.623-.562-3.245-1.147-4.908-1.556a7.816,7.816,0,0,0-2.7-.053,1.314,1.314,0,0,0-1.216,1.871,6.443,6.443,0,0,0,.946,2.088c1.347,1.779,2.791,3.484,4.2,5.214a5.436,5.436,0,0,0,.571.6,2.926,2.926,0,0,1,.74,3.619,15.006,15.006,0,0,1-1.6,2.809c-.552.755-.926.668-1.442-.107a17.024,17.024,0,0,1-1.931-4.888,12.978,12.978,0,0,0-3.707-6.23,14.708,14.708,0,0,1-2.555-3.171c-1.264-2.067-.571-3.881,1.676-4.832a8.055,8.055,0,0,1,4.5-.261c1.211.186,2.415.421,3.63.577a4.774,4.774,0,0,0,4.823-2.018c1.447-2.03,2.8-4.127,4.332-6.094a36.373,36.373,0,0,1,3.579-3.865,4.347,4.347,0,0,1,3.2-1.355,2.974,2.974,0,0,1,1.2.262c3.222,1.64,6.159.967,8.853-1.151a15.61,15.61,0,0,0,5.687-9.587,5.042,5.042,0,0,0-2.694-5.691,16.967,16.967,0,0,0-5.286-1.683c-1.669-.321-3.341-.623-5.011-.939a8.014,8.014,0,0,1-5.513-3.777c-.938-1.508-1.753-3.094-2.616-4.65a12.876,12.876,0,0,0-4.2-4.9,2.706,2.706,0,0,0-1.951-.413c-3.028.412-6,.353-8.766-1.231-.218-.125-.628.007-.907.121a1,1,0,0,0,.078.708c.514.8,1.07,1.566,1.631,2.331a5.235,5.235,0,0,1,1.181,3.282,2.058,2.058,0,0,1-1.5,2.1,5.205,5.205,0,0,1-3.32-.11c-.9-.279-1.04-.144-.9.809s.285,1.913.363,2.875a4.421,4.421,0,0,1-.8,2.863q-2.364,3.522-4.753,7.029a41.381,41.381,0,0,0-4,6.991c-.316.745-.261.91.433,1.351.967.615,1.134.923.615,1.944-.86,1.688-1.805,3.335-2.769,4.968a114.445,114.445,0,0,0-6.749,12.454,18.1,18.1,0,0,0-.934,2.925,1.2,1.2,0,0,0,.3,1.029c.184.146.728.01,1-.166.665-.424,1.26-.954,1.9-1.426,1.11-.823,1.819-.61,2.174.736a21.072,21.072,0,0,0,2.277,5.067,20.938,20.938,0,0,1,.978,1.894,3.111,3.111,0,0,1,.271,1.143c.025.9-.3,1.1-1.078.7-2.878-1.494-5.758-2.982-8.615-4.516-2.075-1.113-2.329-1.529-1.925-4.325a19.1,19.1,0,0,1,2.875-7.04c1.387-2.3,2.927-4.511,4.366-6.782q1.365-2.153,2.617-4.375a10.4,10.4,0,0,0,.729-1.81,1.622,1.622,0,0,0-.39-1.736c-1.3-1.463-1.227-2.526.04-4.226,2.151-2.887,4.309-5.771,6.35-8.735a41.771,41.771,0,0,0,2.523-4.555,2.41,2.41,0,0,0,.011-2.271,4.84,4.84,0,0,1-.1-3.485c.443-1.537.986-3.045,1.408-4.587a9.521,9.521,0,0,1,.86-2.629C415.23,267.928,415.092,267.478,415.092,267.031Z" transform="translate(-393.612 -250.515)"/>
      <path id="Tracé_3367" data-name="Tracé 3367" d="M497,322.151a5.958,5.958,0,0,1,2.182-4.436,33.847,33.847,0,0,1,8.492-5.485,15.967,15.967,0,0,1,6.048-1.322,14.2,14.2,0,0,1,6.663,1.907,43.055,43.055,0,0,1,8.65,6.332,2.54,2.54,0,0,1,1.035,2.5,1.757,1.757,0,0,1-2.509,1.19,45.18,45.18,0,0,0-11.393-3.95,12.7,12.7,0,0,0-9.066,1.718c-2.073,1.222-4,2.695-6,4.046a6.252,6.252,0,0,1-1.176.676,1.618,1.618,0,0,1-2.276-.873A16.41,16.41,0,0,1,497,322.151Z" transform="translate(-433.144 -268.173)"/>
      <path id="Tracé_3368" data-name="Tracé 3368" d="M499.475,254.446a12.954,12.954,0,0,1,4.879.863,7.078,7.078,0,0,1,1.621.96,1.985,1.985,0,0,1,.728,2.073,1.677,1.677,0,0,1-.643.922,21.394,21.394,0,0,1-6.53,2.563,17.145,17.145,0,0,1-8.275.1,14.577,14.577,0,0,0-10.348,1.835c-2.33,1.334-4.534,2.891-6.786,4.361a1.7,1.7,0,0,1-2.283.016,5.851,5.851,0,0,1-2.018-2.366,1.964,1.964,0,0,1,.488-2.585,27.647,27.647,0,0,1,3.794-2.511,44.249,44.249,0,0,1,13.08-4.28c3.555-.671,7.126-1.256,10.693-1.858A14.015,14.015,0,0,1,499.475,254.446Z" transform="translate(-422.646 -246.584)"/>
      <path id="Tracé_3369" data-name="Tracé 3369" d="M513.853,272.312c1.87.175,3.742.33,5.609.529,2.4.256,4.8.5,7.188.836a15.518,15.518,0,0,1,5.117,1.634,2.635,2.635,0,0,1,.765.546,7.661,7.661,0,0,1,1.96,4.787c.051,1.154-.458,1.5-1.559,1.134a64.695,64.695,0,0,0-11.035-2.96,79.314,79.314,0,0,0-8.254-.836,10.668,10.668,0,0,0-6.482,2.162c-1.3.895-2.526,1.9-3.768,2.884a1.6,1.6,0,0,1-2.065.184,6.382,6.382,0,0,1-2.228-2.339,1.884,1.884,0,0,1-.054-1.606,5.187,5.187,0,0,1,1.819-2.437,19.56,19.56,0,0,1,11.557-4.384c.474-.02.948-.049,1.422-.074Z" transform="translate(-433.867 -253.415)"/>
      <path id="Tracé_3370" data-name="Tracé 3370" d="M571.98,278.519q-.877,7.111-1.756,14.25h-3.653c.811-6.6,1.617-13.159,2.433-19.8,1.346,0,2.664-.016,3.981.022.146,0,.332.291.418.483q2.934,6.545,5.849,13.1a1.592,1.592,0,0,0,.459.65c.582-4.729,1.165-9.457,1.752-14.219h3.653c-.81,6.6-1.616,13.157-2.431,19.792-1.316,0-2.6.019-3.876-.024-.162,0-.366-.311-.46-.519q-2.408-5.286-4.791-10.585-.717-1.587-1.438-3.172Z" transform="translate(-459.744 -253.667)"/>
      <path id="Tracé_3371" data-name="Tracé 3371" d="M460.442,251.141A19,19,0,0,1,455,250c-1.132-.351-2.269-.686-3.409-1.014a6.642,6.642,0,0,0-4.8.453c-1.3.616-2.551,1.345-3.818,2.033a14.419,14.419,0,0,0-1.275.756,1.74,1.74,0,0,1-2.633-.494,5.179,5.179,0,0,1-1.114-4.448,3.64,3.64,0,0,1,.92-1.6,7.152,7.152,0,0,1,5.155-2.227c2.27-.041,4.546.056,6.814.171a44.75,44.75,0,0,0,10.6-.209,41.07,41.07,0,0,0,4.419-1.335c.339-.105.678-.216,1.02-.31a.842.842,0,0,1,1.2.737,4.684,4.684,0,0,1-.049,1.637,11.329,11.329,0,0,1-3.08,5.388A6.094,6.094,0,0,1,460.442,251.141Z" transform="translate(-410.518 -241.718)"/>
      <path id="Tracé_3372" data-name="Tracé 3372" d="M614.459,346.02h-3.453l1.12-8.883c-.222.167-.33.241-.43.324a6.193,6.193,0,0,1-10.222-3.17c-1.43-4.891,1.568-10.459,6.327-11.745a6.582,6.582,0,0,1,3.171-.075,3.993,3.993,0,0,1,2.6,1.826c.083.13.174.256.264.382.007.009.036,0,.1,0,.079-.586.16-1.181.245-1.806h3.16C616.379,330.614,615.42,338.31,614.459,346.02Zm-9.9-14.732c.049,1.718.534,3.094,2.017,3.9a3.706,3.706,0,0,0,3.984-.275,5.923,5.923,0,0,0,2.363-6.4,3.577,3.577,0,0,0-5.3-2.291A5.711,5.711,0,0,0,604.562,331.288Z" transform="translate(-472.952 -272.534)"/>
      <path id="Tracé_3373" data-name="Tracé 3373" d="M566.827,335.65c.331-.669.6-1.23.885-1.787q4.737-9.326,9.467-18.655a.785.785,0,0,1,.854-.524c.709.038,1.422.01,2.208.01l5.542,20.95c-1.29,0-2.508.011-3.726-.019-.109,0-.264-.258-.308-.419-.407-1.5-.8-3.012-1.18-4.525-.086-.346-.223-.478-.6-.474q-3,.028-6,0a.7.7,0,0,0-.719.463c-.737,1.487-1.5,2.959-2.228,4.451a.8.8,0,0,1-.851.544C569.1,335.627,568.018,335.65,566.827,335.65Zm11.4-15.361-.164,0-2.9,6.255h4.44Z" transform="translate(-459.842 -269.616)"/>
      <path id="Tracé_3374" data-name="Tracé 3374" d="M747.5,332.334a3.6,3.6,0,0,0,4.034,3.215,4.174,4.174,0,0,0,2.906-1.652.787.787,0,0,1,.509-.305c1.086-.028,2.173-.014,3.343-.014a9.13,9.13,0,0,1-6.519,5.314A6.558,6.558,0,0,1,744.1,333.5a9.955,9.955,0,0,1,6.04-10.874,6.549,6.549,0,0,1,8.994,5.361,9.435,9.435,0,0,1-.177,3.645c-.124.516-.316.728-.9.721-3.286-.037-6.572-.018-9.858-.018Zm.3-3.057h7.926a3.4,3.4,0,0,0-2.618-3.575A4.724,4.724,0,0,0,747.807,329.277Z" transform="translate(-527.556 -272.476)"/>
      <path id="Tracé_3375" data-name="Tracé 3375" d="M733.371,289.394a3.579,3.579,0,0,0,3.078,3.1,4.394,4.394,0,0,0,4.186-1.581.812.812,0,0,1,.524-.29c1.127-.026,2.255-.013,3.48-.013-.159.311-.274.574-.42.818a8.769,8.769,0,0,1-9.664,4.125,6.7,6.7,0,0,1-4.865-6.008,9.282,9.282,0,0,1,7.877-9.806c5.441-.768,8.393,3.622,7.95,7.7-.213,1.962-.246,1.959-2.206,1.959h-9.941Zm8.525-2.89a3.315,3.315,0,0,0-2.547-3.4,4.608,4.608,0,0,0-4.805,1.7,13.419,13.419,0,0,0-1.049,1.7Z" transform="translate(-522.107 -256.222)"/>
      <path id="Tracé_3376" data-name="Tracé 3376" d="M682.532,289.395a3.454,3.454,0,0,0,1.709,2.583,4.339,4.339,0,0,0,5.446-.917,1.127,1.127,0,0,1,1-.461c1.025.03,2.051.01,3.214.149a20.439,20.439,0,0,1-1.682,2.233,8.324,8.324,0,0,1-8.472,2.561,6.638,6.638,0,0,1-4.847-5.957,9.272,9.272,0,0,1,7.838-9.838c5.6-.82,8.442,3.778,7.985,7.711-.055.469-.2.927-.263,1.4-.061.444-.287.553-.718.55-3.485-.017-6.97-.009-10.455-.009Zm.31-2.9H691.1a3.345,3.345,0,0,0-2.413-3.365A4.911,4.911,0,0,0,682.842,286.491Z" transform="translate(-502.686 -256.222)"/>
      <path id="Tracé_3377" data-name="Tracé 3377" d="M690.2,338.566c.059-.629.111-1.188.162-1.742a27.836,27.836,0,0,1-2.369,1.476,6.012,6.012,0,0,1-6.921-.736,6.569,6.569,0,0,1-2.1-4.457,9.969,9.969,0,0,1,3.379-8.9,6.815,6.815,0,0,1,6.675-1.6,5.387,5.387,0,0,1,2.808,2.2c.11-.721.2-1.324.3-1.941h3.138c-.277,2.3-.547,4.578-.826,6.85-.343,2.786-.7,5.569-1.031,8.356-.044.377-.161.513-.542.5C692,338.551,691.13,338.566,690.2,338.566Zm.873-8.259c.009-2.572-1.045-4.088-2.9-4.473a4.112,4.112,0,0,0-3.776,1.1,6.005,6.005,0,0,0-1.973,4.121,4,4,0,0,0,1.842,4.028,3.821,3.821,0,0,0,4.405-.279A5.621,5.621,0,0,0,691.071,330.307Z" transform="translate(-502.699 -272.531)"/>
      <path id="Tracé_3378" data-name="Tracé 3378" d="M605.779,295.889c-5.128.014-8.387-4.729-6.7-9.732a9.4,9.4,0,0,1,9.672-6.315,6.855,6.855,0,0,1,6.078,6.963A9.107,9.107,0,0,1,605.779,295.889Zm.422-3.272c.313-.04.632-.054.938-.124a5.424,5.424,0,0,0,3.987-6.1,3.841,3.841,0,0,0-5.294-2.989,5.342,5.342,0,0,0-3.557,4.88A3.93,3.93,0,0,0,606.2,292.616Z" transform="translate(-472.003 -256.276)"/>
      <path id="Tracé_3379" data-name="Tracé 3379" d="M518.111,291.187a22.008,22.008,0,0,1,15.513,6.636,8.648,8.648,0,0,1,2.23,4.06,2.226,2.226,0,0,1,.065.878.919.919,0,0,1-.361.605c-.11.064-.425-.111-.577-.254a36.757,36.757,0,0,0-7.276-5.588,17.307,17.307,0,0,0-6.8-2.314,13.328,13.328,0,0,0-7.6,1.628,22.261,22.261,0,0,0-5.033,3.534,3.3,3.3,0,0,1-2.267,1.032,1.894,1.894,0,0,1-1.918-2.6,3.6,3.6,0,0,1,.9-1.432,30.49,30.49,0,0,1,6.3-4.613A14.183,14.183,0,0,1,518.111,291.187Z" transform="translate(-435.803 -260.632)"/>
      <path id="Tracé_3380" data-name="Tracé 3380" d="M730.5,338.539h-3.43c.107-.957.208-1.873.313-2.787.243-2.12.523-4.238.712-6.362a5.671,5.671,0,0,0-.216-1.983,2.182,2.182,0,0,0-2.88-1.549,3.211,3.211,0,0,0-2.385,2.27,31.18,31.18,0,0,0-.736,3.951c-.283,2.016-.491,4.042-.755,6.06-.02.156-.225.409-.351.413-1.025.034-2.052.019-3.151.019.644-5.256,1.281-10.446,1.923-15.682h3.164l-.088,1.248c.317-.251.565-.455.822-.648a5.27,5.27,0,0,1,6.106-.352,4.766,4.766,0,0,1,2.142,4.437c-.041,1.733-.273,3.464-.465,5.192C731.011,334.669,730.749,336.569,730.5,338.539Z" transform="translate(-517.498 -272.538)"/>
      <path id="Tracé_3381" data-name="Tracé 3381" d="M631.268,323.2h3.424c-.111.928-.218,1.821-.322,2.715-.257,2.2-.523,4.4-.757,6.6a4.994,4.994,0,0,0,.091,1.238,2.281,2.281,0,0,0,1.6,2.081,2.726,2.726,0,0,0,2.892-.734,5.278,5.278,0,0,0,1.356-2.978c.323-2.15.569-4.311.845-6.467.1-.8.2-1.6.3-2.44h3.448c-.167,1.39-.331,2.774-.5,4.157-.417,3.395-.848,6.788-1.25,10.184-.159,1.347-.129,1.35-1.505,1.35h-1.8l.114-1.419-.183-.149a2.838,2.838,0,0,1-.3.493,5.134,5.134,0,0,1-7.9-.6,4.418,4.418,0,0,1-.741-2.706c.1-1.972.295-3.939.491-5.9.156-1.554.372-3.1.565-4.651C631.172,323.723,631.223,323.474,631.268,323.2Z" transform="translate(-484.026 -272.874)"/>
      <path id="Tracé_3382" data-name="Tracé 3382" d="M640.944,295.729h-3.28c.042-.465.081-.9.12-1.332l-.22-.16a3.1,3.1,0,0,1-.3.508c-1.9,2.193-6.085,1.813-7.831-.086a5.565,5.565,0,0,1-1.245-3.91,11.175,11.175,0,0,1,.107-1.6c.34-2.806.691-5.611,1.043-8.451h3.588c-.117.986-.24,1.957-.344,2.931-.227,2.122-.506,4.24-.646,6.367a2.517,2.517,0,0,0,1.708,2.81,3.067,3.067,0,0,0,3.5-1.217,8.9,8.9,0,0,0,1.218-4.225c.267-2.215.545-4.43.821-6.671h3.6C642.171,285.706,641.56,290.693,640.944,295.729Z" transform="translate(-483.303 -256.621)"/>
      <path id="Tracé_3383" data-name="Tracé 3383" d="M669.976,280.635c-.113.242-.187.418-.276.586q-3.7,7-7.39,14a.77.77,0,0,1-.813.516c-.631-.038-1.269.015-1.9-.028a.657.657,0,0,1-.483-.359q-2.046-7.178-4.048-14.37a2.375,2.375,0,0,1-.036-.346c1.206,0,2.392-.019,3.574.024.142,0,.345.324.4.528.586,2.357,1.148,4.721,1.718,7.083a15.271,15.271,0,0,0,.692,2.3c.1-.2.2-.4.29-.6,1.377-2.955,2.763-5.907,4.121-8.871a.69.69,0,0,1,.757-.473C667.683,280.652,668.789,280.635,669.976,280.635Z" transform="translate(-493.567 -256.594)"/>
      <path id="Tracé_3384" data-name="Tracé 3384" d="M666.536,323.284c.144-1.17.273-2.223.41-3.337.421,0,.815-.025,1.2.007.421.035.531-.151.573-.539.168-1.55.371-3.1.563-4.661h3.451c-.209,1.72-.414,3.4-.629,5.175h2.086c-.14,1.146-.267,2.2-.406,3.338H671.7c-.219,1.769-.43,3.453-.636,5.137-.281,2.295-.552,4.591-.853,6.883a.56.56,0,0,1-.39.371c-1,.032-2.012.017-3.1.017.506-4.147,1-8.232,1.513-12.393Z" transform="translate(-497.966 -269.644)"/>
      <path id="Tracé_3385" data-name="Tracé 3385" d="M713.251,272.439c-.146,1.23-.279,2.385-.421,3.537q-.689,5.615-1.383,11.231c-.2,1.666-.4,3.333-.619,5-.019.143-.213.371-.331.374-1.081.029-2.164.017-3.308.017.143-1.21.272-2.342.411-3.473q.691-5.645,1.387-11.29c.2-1.646.394-3.294.615-4.938.022-.164.217-.43.338-.434C711.023,272.425,712.106,272.439,713.251,272.439Z" transform="translate(-513.51 -253.463)"/>
      <path id="Tracé_3386" data-name="Tracé 3386" d="M721.827,292.591h-3.6c.822-6.7,1.641-13.366,2.465-20.079h3.6C723.468,279.216,722.649,285.887,721.827,292.591Z" transform="translate(-517.729 -253.492)"/>
      <path id="Tracé_3387" data-name="Tracé 3387" d="M712.276,323.162c-.645,5.258-1.28,10.426-1.92,15.634h-3.45c.158-1.337.309-2.644.469-3.95.419-3.429.857-6.856,1.259-10.286.164-1.394.13-1.4,1.516-1.4Z" transform="translate(-513.402 -272.858)"/>
      <path id="Tracé_3388" data-name="Tracé 3388" d="M656.762,323.207H660.2c-.1.878-.187,1.731-.29,2.583q-.7,5.7-1.4,11.4c-.022.177-.059.351-.083.527-.154,1.138-.154,1.139-1.33,1.138q-1.009,0-2.017-.012a1.031,1.031,0,0,1-.229-.076Q655.8,331,656.762,323.207Z" transform="translate(-493.498 -272.875)"/>
      <path id="Tracé_3389" data-name="Tracé 3389" d="M656.7,263.912l.174-1.335h5.211c-.056.293-.085.563-.162.819a4.9,4.9,0,0,1-5.264,3.324A3.653,3.653,0,0,1,653.7,261.8a4.854,4.854,0,0,1,5.84-3.2,3.45,3.45,0,0,1,2.36,2.3c-.81-.075-1.529.3-2.178-.463a2.231,2.231,0,0,0-2.467-.537,3.245,3.245,0,0,0-2.228,3.551,2.4,2.4,0,0,0,1.952,1.909,2.884,2.884,0,0,0,3-1.454Z" transform="translate(-492.976 -248.103)"/>
      <path id="Tracé_3390" data-name="Tracé 3390" d="M675.986,263.131a4.791,4.791,0,0,1,5.573-4.629,3.613,3.613,0,0,1,2.859,4.1,4.8,4.8,0,0,1-5.55,4.081A3.517,3.517,0,0,1,675.986,263.131Zm3.889,2.258a3.224,3.224,0,0,0,3.1-3.132,2.43,2.43,0,0,0-2.422-2.477,3.287,3.287,0,0,0-3.1,3.154A2.4,2.4,0,0,0,679.875,265.389Z" transform="translate(-501.579 -248.106)"/>
      <path id="Tracé_3391" data-name="Tracé 3391" d="M698.67,258.721c-.24,1.977-.473,3.9-.707,5.818-.062.51-.151,1.018-.18,1.529-.021.364-.174.454-.518.46-1.169.019-1.167.03-1.639-1.012q-.915-2.024-1.836-4.046a1.025,1.025,0,0,0-.359-.455c-.226,1.8-.452,3.607-.684,5.458h-1.423c.111-.968.214-1.939.332-2.908.18-1.471.392-2.938.544-4.411.041-.4.189-.484.548-.489,1.163-.017,1.162-.028,1.635,1.024q.911,2.026,1.821,4.052a.976.976,0,0,0,.348.442c.227-1.807.453-3.614.684-5.461Z" transform="translate(-507.445 -248.195)"/>
      <path id="Tracé_3392" data-name="Tracé 3392" d="M632.338,258.751c1.132,0,2.22-.071,3.3.02a1.987,1.987,0,0,1,1.773,2.046,2.926,2.926,0,0,1-1.914,2.794l-.5.188,1.713,2.8a1.528,1.528,0,0,1-2.157-.659,17.828,17.828,0,0,0-1.353-2.112,19.565,19.565,0,0,0-.266,2.132c-.015.664-.277.877-.9.785a5.138,5.138,0,0,0-.673,0C631.69,264.043,632.012,261.41,632.338,258.751Zm1.009,3.784c.384,0,.658-.007.933,0a1.508,1.508,0,0,0,1.393-.622,1.176,1.176,0,0,0-.079-1.519,2.536,2.536,0,0,0-1.861-.292.322.322,0,0,0-.109.194C633.529,261.016,633.444,261.735,633.347,262.534Z" transform="translate(-484.516 -248.22)"/>
      <path id="Tracé_3393" data-name="Tracé 3393" d="M644.574,265.383h2.737c-.051.476-.1.893-.144,1.342h-4.3c.324-2.66.645-5.293.969-7.95h4.3l-.157,1.274h-2.814l-.268,2.014h2.679a.968.968,0,0,1,.028.183c-.135,1.218-.135,1.218-1.372,1.218C644.523,263.464,644.476,263.516,644.574,265.383Z" transform="translate(-488.917 -248.24)"/>
      <path id="Tracé_3394" data-name="Tracé 3394" d="M427.06,316.079c-.044.16-.1.41-.181.652q-.7,2.1-1.411,4.2c-.4,1.166-.612,1.261-1.686.65a5.6,5.6,0,0,1-2.608-2.805c-.253-.642-.186-.934.418-1.21q2.31-1.056,4.661-2.023C426.814,315.31,427.074,315.5,427.06,316.079Z" transform="translate(-404.098 -269.908)"/>
      <path id="Tracé_3395" data-name="Tracé 3395" d="M659.972,317.207a1.966,1.966,0,0,1-2.014-2.025,2.676,2.676,0,0,1,2.614-2.55,1.944,1.944,0,0,1,1.992,2.041A2.587,2.587,0,0,1,659.972,317.207Z" transform="translate(-494.686 -268.832)"/>
      <path id="Tracé_3396" data-name="Tracé 3396" d="M711.965,317.534a1.854,1.854,0,0,1-1.917-1.905,2.468,2.468,0,0,1,2.429-2.421,1.868,1.868,0,0,1,1.933,1.9A2.526,2.526,0,0,1,711.965,317.534Z" transform="translate(-514.603 -269.052)"/>
      <path id="Tracé_3397" data-name="Tracé 3397" d="M429.822,308.112a5.149,5.149,0,0,1,.829.011,2.256,2.256,0,0,1,.558.257,1.757,1.757,0,0,1-.3.539,6.821,6.821,0,0,1-1.208.852c-1.513.773-3.041,1.513-4.574,2.244a1.693,1.693,0,0,1-.613.036,1.555,1.555,0,0,1,.07-.6,30.459,30.459,0,0,1,1.679-2.582,1.752,1.752,0,0,1,1.027-.495c.834-.153,1.685-.219,2.529-.319Z" transform="translate(-405.427 -267.081)"/>
      <path id="Tracé_3398" data-name="Tracé 3398" d="M669.659,266.767c.332-2.7.654-5.323.98-7.982h1.448c-.113.989-.22,1.977-.34,2.963-.177,1.449-.395,2.894-.53,4.346-.05.533-.212.75-.748.677A6.73,6.73,0,0,0,669.659,266.767Z" transform="translate(-499.16 -248.243)"/>
      <path id="Tracé_3399" data-name="Tracé 3399" d="M648.79,253.764l.434,1.127-2.612,1.291-.434-.973Z" transform="translate(-490.182 -246.324)"/>
    </g>
    <rect id="Rectangle_2849" data-name="Rectangle 2849" width="6.944" height="3.259" rx="1.629" transform="translate(620.085 271.986)"/>
  </g>
</svg>
