<svg xmlns="http://www.w3.org/2000/svg" width="291.785" height="25.131" viewBox="0 0 291.785 25.131">
  <g id="Mécène1" transform="translate(-49.148 -751.666)">
    <path id="Tracé_3227" data-name="Tracé 3227" d="M334.931,771.243a11.884,11.884,0,0,0,3.179-1.732c4.221-3.291,3.522-9.023-1.362-11.2a13.2,13.2,0,0,0-5.309-1.129c-4.938-.044-9.876-.019-14.815-.048-.51,0-.6.173-.595.625q.018,10.681,0,21.363c0,.459.1.636.6.628q2.7-.046,5.4,0c.528.009.647-.165.641-.661-.026-2.066,0-4.132-.022-6.2-.006-.49.1-.685.636-.664,1.069.041,2.141.029,3.211.005a1.583,1.583,0,0,1,1.227.5c1.889,1.858,3.8,3.691,5.7,5.542a4.2,4.2,0,0,0,2.454,1.331c2.656.287,5.321.056,8.194.142Zm-1.417-6.394a2.464,2.464,0,0,1-1.365,2.1,4.707,4.707,0,0,1-2.382.571c-2.165.005-4.33-.009-6.494.011-.448,0-.636-.077-.623-.585.036-1.481.027-2.964,0-4.447-.007-.411.108-.538.525-.529,1.191.027,2.383.01,3.823.01a25.9,25.9,0,0,1,4.191.157A2.586,2.586,0,0,1,333.514,764.849Z" transform="translate(-162.732 -3.333)"/>
    <path id="Tracé_3228" data-name="Tracé 3228" d="M189.887,771.263a15.318,15.318,0,0,0,2.322-1.15,9.251,9.251,0,0,0,1.945-1.637,6.224,6.224,0,0,0-1.607-9.723,12.152,12.152,0,0,0-5.93-1.553c-5.033-.071-10.069-.034-15.1-.056-.417,0-.527.124-.526.532q.017,10.752,0,21.505c0,.451.14.577.583.571,1.8-.022,3.6-.028,5.4,0,.517.009.653-.145.646-.652-.028-2.065.011-4.131-.026-6.2-.01-.566.163-.7.7-.675,1.044.042,2.091.028,3.137.006a1.578,1.578,0,0,1,1.23.494c1.837,1.807,3.723,3.564,5.537,5.394a5.242,5.242,0,0,0,3.919,1.618c2.14,0,4.281,0,6.421,0,.1,0,.251.066.287-.168Zm-1.435-6.4a2.457,2.457,0,0,1-1.364,2.091,4.57,4.57,0,0,1-2.3.566c-2.208.01-4.416-.009-6.625.016-.45,0-.574-.114-.565-.563.028-1.5.023-3.006,0-4.51-.006-.381.1-.5.486-.488,1.189.024,2.378.009,3.819.009a27.525,27.525,0,0,1,4.177.148A2.587,2.587,0,0,1,188.452,764.865Z" transform="translate(-74.292 -3.34)"/>
    <path id="Tracé_3229" data-name="Tracé 3229" d="M638.128,757.145c3.576,0,7.152.012,10.728-.013.56,0,.757.122.731.714-.05,1.164-.041,2.333,0,3.5.017.514-.138.646-.647.644-4.962-.019-9.925,0-14.888-.026-.606,0-.861.09-.8.77a18.175,18.175,0,0,1,.005,2.55c-.029.529.153.633.651.631,4.89-.019,9.78,0,14.669-.026.608,0,.782.143.754.754-.053,1.14-.048,2.285,0,3.425.022.547-.129.681-.677.679-4.865-.023-9.731,0-14.6-.027-.6,0-.862.078-.806.766a21.129,21.129,0,0,1,.005,2.768c-.027.535.167.625.655.623,4.938-.018,9.877,0,14.815-.025.589,0,.8.115.775.742-.052,1.14-.057,2.286,0,3.425.033.649-.214.735-.785.732-4.378-.023-8.758-.013-13.136-.013-2.749,0-5.5-.012-8.247.011-.492,0-.662-.1-.661-.63q.027-10.681,0-21.363c0-.536.173-.623.658-.62C630.927,757.154,634.528,757.145,638.128,757.145Z" transform="translate(-352.145 -3.333)"/>
    <path id="Tracé_3230" data-name="Tracé 3230" d="M493.6,770.309v-7.863c0-1.555.02-3.111-.011-4.665-.009-.489.089-.676.627-.661,1.458.039,2.919.027,4.378,0,.417-.006.589.063.588.545q-.025,10.752,0,21.5c0,.463-.155.589-.588.558a5.881,5.881,0,0,0-1.384,0c-1.84.311-3.176-.466-4.533-1.654-4.444-3.888-8.992-7.659-13.5-11.474-.072-.061-.149-.117-.268-.208a1.471,1.471,0,0,0-.084.779c-.005,3.936-.018,7.873.012,11.809.005.622-.177.77-.772.751-1.36-.044-2.725-.05-4.085,0-.639.025-.745-.2-.743-.782q.029-10.533,0-21.067c0-.574.087-.81.734-.775,1.14.06,2.286.033,3.428.009a1.452,1.452,0,0,1,1.042.388q7.343,6.221,14.706,12.42C493.248,770.024,493.358,770.114,493.6,770.309Z" transform="translate(-258.584 -3.321)"/>
    <path id="Tracé_3231" data-name="Tracé 3231" d="M81.379,779.189q-6.8-10.765-13.6-21.534a.88.88,0,0,0-.872-.466c-1.483.022-2.967.034-4.449,0a1.02,1.02,0,0,0-1.072.616c-2.767,5.007-5.565,10-8.353,14.994-1.274,2.283-2.544,4.569-3.881,6.973,2.05,0,3.967-.012,5.883.01.37,0,.5-.183.645-.455.709-1.352,1.434-2.7,2.139-4.05a.711.711,0,0,1,.713-.473q5.872.025,11.744,0a.684.684,0,0,1,.686.4c.642,1.14,1.395,2.227,1.952,3.406a1.878,1.878,0,0,0,2.08,1.186c2.2-.086,4.4-.027,6.694-.027C81.553,779.517,81.478,779.345,81.379,779.189Zm-20.754-9.145,3.51-6.847c1.285,2.317,2.521,4.545,3.8,6.847Z" transform="translate(0 -3.364)"/>
    <path id="Tracé_3232" data-name="Tracé 3232" d="M574.043,771.439c0,1.73-.012,3.449.009,5.168.005.42-.31.455-.551.565a25.845,25.845,0,0,1-11.47,2.293,20.5,20.5,0,0,1-8.932-2.087,11.125,11.125,0,0,1-6.189-7.062,9.915,9.915,0,0,1,4.065-10.872,17.8,17.8,0,0,1,8.574-3.185,29.693,29.693,0,0,1,13.63,1.609.857.857,0,0,1,.674.991c-.049,1.432-.035,2.867-.007,4.3.01.519-.122.572-.567.357a22.782,22.782,0,0,0-7.64-2.257c-2.914-.3-5.792-.247-8.443,1.228-2.086,1.161-3.471,2.827-3.424,5.343a5.708,5.708,0,0,0,2.814,4.751,11.378,11.378,0,0,0,6.578,1.77,20.834,20.834,0,0,0,10.118-2.6A1.434,1.434,0,0,1,574.043,771.439Z" transform="translate(-303.292 -2.678)"/>
    <path id="Tracé_3233" data-name="Tracé 3233" d="M419.869,779.178q-6.606-10.763-13.211-21.528a.869.869,0,0,0-.874-.464c-1.46.021-2.92.034-4.378-.007a.9.9,0,0,0-.939.581q-5.766,10.652-11.558,21.29a1.2,1.2,0,0,0-.27.713c1.918,0,3.829,0,5.74,0,.324,0,.386-.237.494-.446.686-1.338,1.386-2.668,2.048-4.017a.8.8,0,0,1,.839-.508q5.582.026,11.164,0a.823.823,0,0,1,.864.469c.714,1.323,1.5,2.608,2.215,3.929a.932.932,0,0,0,.955.58c2.189-.03,4.378-.011,6.567-.018.182,0,.425.109.539-.077S419.964,779.333,419.869,779.178Zm-20.178-9.125,3.427-6.858,3.712,6.858Z" transform="translate(-207.004 -3.362)"/>
    <path id="Tracé_3234" data-name="Tracé 3234" d="M249.265,768.428c0-3.547.01-7.094-.011-10.64,0-.487.088-.658.623-.656q10.395.029,20.79,0c.49,0,.678.1.658.629-.043,1.14-.048,2.285,0,3.424.027.614-.1.814-.777.809-4.668-.036-9.337-.008-14.005-.034-.58,0-.724.153-.707.716.041,1.408.049,2.819,0,4.226-.022.608.2.7.734.695,4.523-.019,9.045,0,13.568-.024.608,0,.862.1.821.781-.067,1.138-.051,2.284,0,3.424.023.566-.167.68-.7.677-4.571-.021-9.143,0-13.714-.027-.592,0-.711.174-.7.725.032,1.991-.009,3.984.027,5.975.01.553-.2.623-.674.616-1.75-.025-3.5-.033-5.252,0-.546.011-.692-.131-.687-.683C249.278,775.521,249.265,771.974,249.265,768.428Z" transform="translate(-122.014 -3.333)"/>
    <path id="Tracé_3235" data-name="Tracé 3235" d="M138.242,768.4c0-3.524.016-7.048-.016-10.571-.005-.6.182-.711.729-.7,1.751.033,3.5.024,5.254,0,.434,0,.632.05.631.573q-.029,10.717,0,21.435c0,.5-.151.607-.617.6-1.8-.024-3.6-.029-5.4,0-.508.009-.59-.175-.588-.627C138.25,775.549,138.242,771.977,138.242,768.4Z" transform="translate(-54.316 -3.332)"/>
    <path id="Tracé_3236" data-name="Tracé 3236" d="M740.948,760.554q2.944-4.278,5.885-8.558a.641.641,0,0,1,.587-.329c5.048.007,10.1,0,15.34,0l-6.534,9.316c-4.679-.135-9.359-.019-14.039-.068C741.754,760.915,741.243,761.069,740.948,760.554Z" transform="translate(-421.827 0)"/>
    <path id="Tracé_3237" data-name="Tracé 3237" d="M743.889,787.238c-.676,1.106-1.426,2.16-2.208,3.192a3.151,3.151,0,0,1-.934.107q-6.686,0-13.372-.006c-.4,0-.833.083-1.175-.239l2.346-3.35a.981.981,0,0,1,.561-.116c4.537.055,9.074,0,13.611.031C743.138,786.858,743.616,786.758,743.889,787.238Z" transform="translate(-412.835 -21.438)"/>
    <path id="Tracé_3238" data-name="Tracé 3238" d="M747.555,782.944a1.776,1.776,0,0,0-.993-.151q-6.565,0-13.13,0a3.969,3.969,0,0,1-1.219-.151l1.8-2.623a1.634,1.634,0,0,1,1.042-.24q6.58,0,13.161.005c.451,0,.939-.057,1.259.392A27.674,27.674,0,0,1,747.555,782.944Z" transform="translate(-416.501 -17.143)"/>
    <path id="Tracé_3239" data-name="Tracé 3239" d="M752.287,776.924a4.112,4.112,0,0,0-1.214-.163q-7.124.013-14.248.006l1.609-2.326a1.431,1.431,0,0,0,.917.135q6.732.005,13.464.006c.323,0,.7-.116.9.293A15.926,15.926,0,0,1,752.287,776.924Z" transform="translate(-419.313 -13.887)"/>
    <path id="Tracé_3240" data-name="Tracé 3240" d="M711.581,808.321l2.21-1.547a2.354,2.354,0,0,1,.718-.1c4.489.014,8.978,0,13.467.016.422,0,.966-.155,1.14.484a7.263,7.263,0,0,1-2.477,1.78,11.514,11.514,0,0,0-1.809-.066c-4.07-.008-8.141,0-12.211-.013C712.2,808.879,711.641,809.031,711.581,808.321Z" transform="translate(-403.921 -33.544)"/>
    <path id="Tracé_3241" data-name="Tracé 3241" d="M732.57,805.123c-.205-.347-.548-.254-.853-.254q-6.74-.005-13.48,0a1.753,1.753,0,0,1-.993-.147l1.167-1.167a1.89,1.89,0,0,1,1.047-.239c4.386,0,8.772-.008,13.158.014.429,0,1.032-.184,1.141.551A4.032,4.032,0,0,1,732.57,805.123Z" transform="translate(-407.374 -31.488)"/>
    <path id="Tracé_3242" data-name="Tracé 3242" d="M735.581,802.092c-.178-.42-.553-.322-.879-.322q-7.233-.007-14.466,0l.921-1.161a1.389,1.389,0,0,1,.9-.222q6.829,0,13.659.007c.333,0,.745-.113.884.375A4.864,4.864,0,0,1,735.581,802.092Z" transform="translate(-409.197 -29.702)"/>
    <path id="Tracé_3243" data-name="Tracé 3243" d="M720.195,812.841a7.339,7.339,0,0,1-2.97.572q-6.962.015-13.925,0c-.219,0-.574.18-.608-.281s.314-.388.591-.426c.328-.045.655-.1.982-.157a10.061,10.061,0,0,1,2.667-.217c4.077.016,8.153,0,12.229.014C719.564,812.345,720.084,812.2,720.195,812.841Z" transform="translate(-398.499 -36.989)"/>
    <path id="Tracé_3244" data-name="Tracé 3244" d="M725.589,795.686q7.323,0,14.646.009c.279,0,.587-.106.834.13a1.552,1.552,0,0,1-.428.606,4.783,4.783,0,0,1-.869.061q-6.77,0-13.54,0c-.355,0-.738.085-1.035-.213Z" transform="translate(-412.224 -26.832)"/>
    <path id="Tracé_3245" data-name="Tracé 3245" d="M722.656,811.962c-.2-.405-.582-.283-.9-.283q-7.513-.012-15.026-.012l1.9-.781c.183.463.59.348.938.348,4.445,0,8.889,0,13.334.012.272,0,.663-.2.786.278A2.3,2.3,0,0,1,722.656,811.962Z" transform="translate(-400.96 -36.11)"/>
    <path id="Tracé_3246" data-name="Tracé 3246" d="M724.729,797.193q7.348,0,14.7,0c.254,0,.541-.1.749.154a.772.772,0,0,1-.3.43,8.914,8.914,0,0,1-.943.059q-6.734,0-13.467-.007c-.353,0-.736.091-1.038-.2Z" transform="translate(-411.755 -27.75)"/>
    <path id="Tracé_3247" data-name="Tracé 3247" d="M738.035,800.081c-.2-.256-.492-.159-.746-.159q-7.347-.007-14.694,0l.327-.462a1.906,1.906,0,0,1,.988-.187c4.487,0,8.975,0,13.463.01.343,0,.8-.169.958.37Z" transform="translate(-410.636 -29.019)"/>
    <path id="Tracé_3248" data-name="Tracé 3248" d="M738.842,799.3c-.226-.281-.541-.165-.818-.166q-7.3-.021-14.591-.026l.2-.274a1.659,1.659,0,0,1,.923-.14q6.883,0,13.767,0c.281,0,.589-.083.831.155A.753.753,0,0,1,738.842,799.3Z" transform="translate(-411.148 -28.669)"/>
    <path id="Tracé_3249" data-name="Tracé 3249" d="M739.477,798.616l-15.52-.018.184-.286q7.348,0,14.7,0c.254,0,.54-.1.752.146Z" transform="translate(-411.467 -28.433)"/>
  </g>
</svg>
