<svg xmlns="http://www.w3.org/2000/svg" width="157.666" height="45.052" viewBox="0 0 157.666 45.052">
  <g id="Mécène3" transform="translate(-45.77 -416.5)">
    <path id="Tracé_3257" data-name="Tracé 3257" d="M56.413,438.259a10.881,10.881,0,1,1,11.2-10.743A10.906,10.906,0,0,1,56.413,438.259Z" transform="translate(-0.003 -0.001)"/>
    <path id="Tracé_3258" data-name="Tracé 3258" d="M45.77,487.859a10.921,10.921,0,1,1,11.019,10.777A10.932,10.932,0,0,1,45.77,487.859Z" transform="translate(0 -37.085)"/>
    <path id="Tracé_3259" data-name="Tracé 3259" d="M128.182,487.8a10.906,10.906,0,1,1-11.029-10.93A10.851,10.851,0,0,1,128.182,487.8Z" transform="translate(-37.223 -37.083)"/>
    <path id="Tracé_3260" data-name="Tracé 3260" d="M117.231,438.261a10.881,10.881,0,1,1,10.966-10.91A10.892,10.892,0,0,1,117.231,438.261Z" transform="translate(-37.225 0)"/>
    <path id="Tracé_3261" data-name="Tracé 3261" d="M322.963,484.653c.012.229.029.457.037.686.062,1.695.031,3.39.034,5.085,0,2.575,0,5.15.006,7.724,0,.244-.046.332-.312.326q-1.32-.027-2.642,0c-.268.005-.344-.071-.342-.339.01-2.081.006-4.162.006-6.244,0-4.034,0-8.068-.009-12.1,0-.319.087-.385.391-.379.956.021,1.912.01,2.868.005a.415.415,0,0,1,.4.188c.942,1.322,1.843,2.671,2.753,4.014.757,1.117,1.53,2.224,2.292,3.338q1.786,2.611,3.569,5.224c.039.057.059.139.181.163-.015-.346-.042-.68-.043-1.016q-.017-3.621-.026-7.241c0-1.437.008-2.875-.009-4.313,0-.3.089-.366.375-.36.87.019,1.74.014,2.61,0,.228,0,.314.039.314.295q-.012,9.237,0,18.474c0,.223-.057.294-.286.29-.795-.013-1.59-.01-2.384,0a.36.36,0,0,1-.34-.181c-.773-1.133-1.553-2.261-2.33-3.391q-1.283-1.866-2.565-3.732-1.381-2.015-2.756-4.034c-.572-.834-1.149-1.665-1.724-2.5Z" transform="translate(-168.284 -38.642)"/>
    <path id="Tracé_3262" data-name="Tracé 3262" d="M196.412,429.932l.638.19a4.019,4.019,0,0,1,2.835,3.437,5.192,5.192,0,0,1-1.994,4.948,7.062,7.062,0,0,1-3.808,1.409c-2.016.186-4.036.076-6.054.1-.7.01-1.4-.014-2.094.007-.292.009-.374-.069-.373-.368q.015-7.532.008-15.063,0-1.673,0-3.347c0-.159-.013-.28.225-.279,2.492.014,4.984-.014,7.475.035a5.885,5.885,0,0,1,3.1.849,4.644,4.644,0,0,1,2.316,4.274,4.21,4.21,0,0,1-2.108,3.644C196.516,429.809,196.427,429.82,196.412,429.932Zm-4.682,1.885c-.97,0-1.8.006-2.623,0-.2,0-.255.06-.254.255.007,1.587.009,3.173,0,4.76,0,.236.1.253.286.252q1.707-.009,3.414,0a9.657,9.657,0,0,0,1.634-.122,2.676,2.676,0,0,0,1.862-.973,2.488,2.488,0,0,0-1.537-4.05A16.863,16.863,0,0,0,191.73,431.817Zm-2.874-5.433c0,.751.008,1.5-.005,2.252,0,.212.059.27.27.268,1.106-.012,2.212,0,3.318-.013a4.721,4.721,0,0,0,1.42-.242,2.437,2.437,0,0,0,1.043-3.816,2.627,2.627,0,0,0-2-.882c-1.265-.084-2.533-.018-3.8-.038-.2,0-.253.055-.25.251C188.863,424.9,188.857,425.644,188.857,426.384Z" transform="translate(-85.865 -2.745)"/>
    <path id="Tracé_3263" data-name="Tracé 3263" d="M237.749,488.537a11.053,11.053,0,0,1-1.193,5.278,8.138,8.138,0,0,1-5.052,4.241,9.38,9.38,0,0,1-7.667-.884,7.377,7.377,0,0,1-2.636-2.636,11.285,11.285,0,0,1-.915-9.553,8.264,8.264,0,0,1,3.868-4.83,9.271,9.271,0,0,1,6.7-.94,8.368,8.368,0,0,1,3.084,1.314,8.259,8.259,0,0,1,2.8,3.333A11.138,11.138,0,0,1,237.749,488.537Zm-14.631.128a8.417,8.417,0,0,0,.926,4.072,5.087,5.087,0,0,0,2.825,2.5,5.164,5.164,0,0,0,6.652-2.84,8.515,8.515,0,0,0-.31-7.922,4.86,4.86,0,0,0-3.191-2.42,5.274,5.274,0,0,0-6.212,3.144A8.4,8.4,0,0,0,223.117,488.666Z" transform="translate(-106.797 -38.374)"/>
    <path id="Tracé_3264" data-name="Tracé 3264" d="M238.387,431.388a6.447,6.447,0,0,1,1.51,2.01c1.11,1.968,2.1,4,3.11,6.019.3.609.3.61-.374.611-.891,0-1.783-.014-2.674.007a.509.509,0,0,1-.54-.334c-.506-1.063-1.006-2.13-1.536-3.181a23.655,23.655,0,0,0-1.634-2.944,1.831,1.831,0,0,0-1.736-.934c-.769.054-1.546.024-2.318.006-.25-.006-.3.073-.3.307.008,2.242,0,4.483.012,6.725,0,.284-.067.361-.353.354-.869-.02-1.74-.018-2.609,0-.263.005-.344-.056-.344-.333q.014-8.623.01-17.247c0-.408.01-.815-.005-1.222-.008-.2.059-.25.255-.25,2.266.01,4.532-.022,6.8.027a7.6,7.6,0,0,1,3.649.913,4.719,4.719,0,0,1,2.44,3.333,5.875,5.875,0,0,1-.186,3.111,4.746,4.746,0,0,1-2.882,2.88C238.582,431.287,238.462,431.283,238.387,431.388Zm-6.487-4.579q0,1.318,0,2.636c0,.12-.045.266.171.262,1.287-.026,2.577.077,3.859-.054a2.732,2.732,0,0,0,2.615-2.4,2.669,2.669,0,0,0-1.751-3.067,4.544,4.544,0,0,0-1.548-.254c-1.019,0-2.038.009-3.057-.007-.258,0-.3.091-.294.315C231.906,425.095,231.9,425.952,231.9,426.809Z" transform="translate(-112.302 -2.753)"/>
    <path id="Tracé_3265" data-name="Tracé 3265" d="M394.094,430.478q0-4.586-.006-9.172c0-.255.045-.351.329-.345.869.02,1.74.017,2.609,0,.265-.005.341.066.339.335-.012,2.381,0,4.763-.016,7.144,0,.287.075.35.355.349q4.317-.017,8.635,0c.248,0,.3-.071.3-.307-.009-2.371,0-4.742-.015-7.112,0-.347.1-.419.425-.41.858.023,1.718.014,2.577,0,.211,0,.268.058.268.268q-.008,9.269,0,18.537c0,.167-.023.252-.223.25-.934-.009-1.869-.012-2.8,0-.257,0-.236-.138-.236-.307q0-3.733,0-7.466c0-.43,0-.432-.435-.432-2.846,0-5.692,0-8.538-.008-.284,0-.307.108-.307.336q.009,3.7,0,7.4c0,.469,0,.47-.486.471-.816,0-1.633-.013-2.448.007-.278.007-.337-.08-.336-.341Q394.1,435.08,394.094,430.478Z" transform="translate(-213.951 -2.74)"/>
    <path id="Tracé_3266" data-name="Tracé 3266" d="M272.3,486.073c0-2.114,0-4.227-.006-6.341,0-.255.066-.326.322-.321.87.017,1.74.019,2.61,0,.3-.007.355.1.355.371q-.008,5.97,0,11.941a4.79,4.79,0,0,0,.434,2.027,3.337,3.337,0,0,0,2.529,1.881,6.729,6.729,0,0,0,3.256-.078,3.331,3.331,0,0,0,2.555-3.047,8.464,8.464,0,0,0,.079-1.348q0-5.664,0-11.329c0-.41,0-.41.414-.41.87,0,1.74,0,2.61,0,.162,0,.253.016.252.221-.022,4.13.041,8.261-.038,12.391a7.331,7.331,0,0,1-.885,3.456,5.583,5.583,0,0,1-2.074,2.149,9.621,9.621,0,0,1-5.315,1.1,9,9,0,0,1-3.413-.716,5.694,5.694,0,0,1-3.038-3.081,9.446,9.446,0,0,1-.645-3.713C272.291,489.507,272.3,487.79,272.3,486.073Z" transform="translate(-139.14 -38.642)"/>
    <path id="Tracé_3267" data-name="Tracé 3267" d="M363.3,423.14c0,.44-.009.88,0,1.319.007.222-.057.268-.256.169a12.057,12.057,0,0,0-2.443-.891,9.232,9.232,0,0,0-4.178-.168,2.443,2.443,0,0,0-1.366.738,1.912,1.912,0,0,0,.341,2.739,8.292,8.292,0,0,0,2.454,1.24,30.349,30.349,0,0,1,3.952,1.621,4.914,4.914,0,0,1,2.146,6.62,5.613,5.613,0,0,1-3.775,3.058,12.282,12.282,0,0,1-7.776-.358,7.367,7.367,0,0,1-1.643-.8c-.1-.068-.153-.094-.076-.239.369-.7.716-1.413,1.071-2.121.193-.385.191-.381.549-.186a9.452,9.452,0,0,0,6.106,1.191,3.193,3.193,0,0,0,2.08-1.044,2.117,2.117,0,0,0-.343-3.032,9.4,9.4,0,0,0-2.8-1.338,24.549,24.549,0,0,1-3.14-1.234,5.419,5.419,0,0,1-2.272-1.933,5.016,5.016,0,0,1-.553-3.811,4.609,4.609,0,0,1,2.389-3.147,9.033,9.033,0,0,1,4.922-.97,14.276,14.276,0,0,1,3.787.7c.875.281.872.287.857,1.207,0,.225,0,.45,0,.675Z" transform="translate(-187.271 -2.485)"/>
    <path id="Tracé_3268" data-name="Tracé 3268" d="M366.7,488.817a10.871,10.871,0,0,1,.8-4.369,8.256,8.256,0,0,1,5.884-5.186,11.657,11.657,0,0,1,5.822.2c.553.146,1.069.385,1.6.575.13.046.164.108.117.238q-.45,1.238-.888,2.479c-.061.174-.154.1-.248.056a8.336,8.336,0,0,0-3.53-.871,5.407,5.407,0,0,0-4.946,2.578,8.032,8.032,0,0,0-1.037,5.751,6.6,6.6,0,0,0,1.264,3.091,5.223,5.223,0,0,0,3.9,2.145,8.371,8.371,0,0,0,4.314-.813c.18-.085.245-.076.312.121.268.78.55,1.554.835,2.328.052.143.057.223-.108.3a12.039,12.039,0,0,1-7.272.831,7.779,7.779,0,0,1-5.76-4.431A11.485,11.485,0,0,1,366.7,488.817Z" transform="translate(-197.126 -38.378)"/>
    <path id="Tracé_3269" data-name="Tracé 3269" d="M190.144,479a12.188,12.188,0,0,1,4.045.679c.314.1.616.247.928.359.157.057.183.129.127.286q-.437,1.208-.85,2.424c-.076.225-.192.11-.294.061a8.315,8.315,0,0,0-3.534-.859,5.35,5.35,0,0,0-4.993,2.717,8.1,8.1,0,0,0-.68,6.731,5.737,5.737,0,0,0,2.3,3.23,5.538,5.538,0,0,0,3.164.913,8.467,8.467,0,0,0,3.7-.831c.232-.109.3-.061.378.165.252.762.519,1.52.792,2.275.06.167.036.238-.133.311a12.1,12.1,0,0,1-7.467.773A7.678,7.678,0,0,1,182.7,494.9a9.8,9.8,0,0,1-1.461-3.775,12.193,12.193,0,0,1,.383-6.065,8.658,8.658,0,0,1,3.246-4.51A8.835,8.835,0,0,1,190.144,479Z" transform="translate(-83.079 -38.389)"/>
    <path id="Tracé_3270" data-name="Tracé 3270" d="M293.4,431.956c0-2.553-.007-5.106.009-7.658,0-.333-.093-.4-.412-.4-1.8.016-3.608,0-5.412.015-.264,0-.32-.079-.316-.323.014-.783.023-1.566,0-2.348-.01-.309.13-.31.36-.31q7.152.008,14.3.007c.265,0,.606-.113.777.048s.051.508.055.772c.01.611-.009,1.223.009,1.834.007.25-.055.323-.316.321-1.815-.013-3.63,0-5.444-.013-.274,0-.361.052-.361.347.011,5.127.006,10.254.015,15.381,0,.28-.064.365-.353.359-.87-.021-1.74-.017-2.609,0-.241,0-.307-.062-.307-.3C293.4,437.1,293.4,434.53,293.4,431.956Z" transform="translate(-148.338 -2.702)"/>
    <path id="Tracé_3271" data-name="Tracé 3271" d="M426.606,488.925c0-3.046.006-6.091-.008-9.137,0-.323.092-.385.392-.377.848.021,1.7.019,2.544,0,.27-.006.334.069.334.335q-.013,7.673-.005,15.346c0,.486-.078.425.422.425,2.255,0,4.509.005,6.764,0,.245,0,.311.067.306.307q-.022,1.19,0,2.38c0,.216-.066.273-.274.273q-5.105-.008-10.211,0c-.3,0-.263-.167-.263-.349Q426.606,493.526,426.606,488.925Z" transform="translate(-233.92 -38.642)"/>
    <path id="Tracé_3272" data-name="Tracé 3272" d="M410.342,488.942c0-3.046,0-6.093-.006-9.139,0-.3.052-.407.38-.4.848.026,1.7.021,2.545,0,.288-.007.371.064.371.362q-.015,7.482-.007,14.964c0,1.137-.01,2.274.007,3.411,0,.279-.084.334-.341.33-.87-.015-1.74-.022-2.609,0-.306.009-.347-.1-.345-.364.01-2.07.005-4.14.005-6.211Z" transform="translate(-223.931 -38.639)"/>
    <path id="Tracé_3273" data-name="Tracé 3273" d="M333.957,430.478c0-3.056.005-6.112-.007-9.168,0-.3.086-.353.359-.347.87.017,1.739.011,2.608,0,.22,0,.315.028.314.29q-.013,9.233,0,18.465c0,.245-.07.307-.308.3-.891-.013-1.782-.015-2.673,0-.25,0-.3-.078-.3-.312Q333.963,435.094,333.957,430.478Z" transform="translate(-177.012 -2.741)"/>
    <path id="Tracé_3274" data-name="Tracé 3274" d="M272.371,430.514c0-3.068,0-6.135-.008-9.2,0-.293.083-.353.358-.347.859.018,1.718.016,2.577,0,.261-.005.338.059.338.332q-.013,8.672-.007,17.345c0,.386-.006.773,0,1.158,0,.165-.046.223-.218.221-.934-.008-1.869-.014-2.8,0-.288,0-.24-.169-.24-.336q0-2.96,0-5.921Q272.371,432.139,272.371,430.514Z" transform="translate(-139.183 -2.741)"/>
  </g>
</svg>
