<svg xmlns="http://www.w3.org/2000/svg" width="197" height="80.612" viewBox="0 0 197 80.612">
  <g id="Mécène4" transform="translate(-413.035 -64.633)">
    <g id="Groupe_1651" data-name="Groupe 1651" transform="translate(494.75 87.722)">
      <path id="Tracé_3275" data-name="Tracé 3275" d="M573.944,161.747c.7-1.569,1.341-2.995,1.975-4.423.491-1.106,1-2.205,1.453-3.328a1.4,1.4,0,0,1,1.73-.914c.786.138,1.016.7,1.013,1.445q-.017,7.125,0,14.249c0,.782-.3,1.305-1.1,1.328-.864.025-1.2-.534-1.2-1.344q0-4.226,0-8.452c0-.346,0-.691,0-1.037l-.258-.064-1.059,2.449c-.39.9-.79,1.8-1.167,2.7a1.437,1.437,0,0,1-1.357,1.082,1.408,1.408,0,0,1-1.38-1.039c-.774-1.76-1.574-3.508-2.52-5.257-.024.265-.068.53-.068.8q-.007,4.127,0,8.254c0,.229,0,.459,0,.688-.026.787-.435,1.257-1.223,1.221a1.075,1.075,0,0,1-1.087-1.244c.015-1.572,0-3.144,0-4.717,0-3.178.01-6.355-.007-9.533,0-.729.161-1.341.94-1.51a1.451,1.451,0,0,1,1.823.923c.962,2.221,1.971,4.422,2.965,6.63C573.556,160.97,573.716,161.279,573.944,161.747Z" transform="translate(-567.686 -129.418)"/>
      <path id="Tracé_3276" data-name="Tracé 3276" d="M575.258,116.648a5.137,5.137,0,0,1,1.917,4.435,4.675,4.675,0,0,1-4.345,4.311c-1.276.061-2.557.022-3.836.019a1.144,1.144,0,0,1-1.289-1.268q-.01-7.122,0-14.245a1.153,1.153,0,0,1,1.306-1.258c1.278-.009,2.559-.029,3.835.032a4,4,0,0,1,3.831,2.742,4.435,4.435,0,0,1-.949,4.914A3.093,3.093,0,0,1,575.258,116.648Zm-5.193,6.46c.933,0,1.781.046,2.622-.011a2.374,2.374,0,0,0,2.218-2.426,2.525,2.525,0,0,0-2.069-2.7,26.958,26.958,0,0,0-2.771-.019Zm0-7.51c.968,0,1.88.067,2.779-.017a2.241,2.241,0,0,0,1.853-2.309A1.971,1.971,0,0,0,573.025,111a23.269,23.269,0,0,0-2.957-.025Z" transform="translate(-567.692 -108.472)"/>
      <path id="Tracé_3277" data-name="Tracé 3277" d="M651.157,162.862c.887,1.862,1.733,3.629,2.57,5.4.467.989.343,1.612-.4,1.9-.878.345-1.334-.142-1.677-.881-.758-1.632-1.542-3.251-2.315-4.876-.725-1.525-.725-1.526-2.643-1.287,0,1.7,0,3.426,0,5.15,0,.391.1.878-.089,1.151-.259.37-.767.811-1.142.788s-.811-.528-1.031-.926c-.168-.3-.043-.768-.044-1.161q0-6.534,0-13.068c0-1.375.295-1.665,1.673-1.67,1.115,0,2.23-.01,3.345,0a4.66,4.66,0,0,1,4.681,3.586,4.855,4.855,0,0,1-2.4,5.6Zm-4.422-2.176c.37.018.629.041.887.041.722,0,1.445.022,2.164-.022a2.2,2.2,0,0,0,2.095-1.98c.178-1.377-.37-2.671-1.464-2.89a27.4,27.4,0,0,0-3.682-.26Z" transform="translate(-603.836 -129.577)"/>
      <path id="Tracé_3278" data-name="Tracé 3278" d="M621.9,118.393c0,1.92,0,3.782,0,5.643,0,1.019-.379,1.532-1.13,1.49-.924-.053-1.175-.66-1.174-1.49.009-4.617,0-9.235.009-13.852,0-1.166.377-1.543,1.524-1.559,1.246-.018,2.494-.039,3.738.019a4.687,4.687,0,0,1,4.478,3.6,4.893,4.893,0,0,1-2.452,5.588l-.5.267,2.278,4.8c.127.266.257.531.379.8.307.671.33,1.316-.415,1.684s-1.317.063-1.669-.685c-.556-1.184-1.126-2.362-1.689-3.543-.225-.473-.444-.948-.668-1.421C623.848,118.118,623.848,118.118,621.9,118.393Zm.062-2.407c1.036,0,1.985.029,2.931-.007a2.312,2.312,0,0,0,2.283-2.352,2.363,2.363,0,0,0-1.943-2.664,28.237,28.237,0,0,0-3.271-.026Z" transform="translate(-592.167 -108.46)"/>
      <path id="Tracé_3279" data-name="Tracé 3279" d="M645.186,116.988c0-2.257-.005-4.513,0-6.77,0-1.211.359-1.58,1.582-1.585,1.342-.006,2.689-.038,4.024.066a4.269,4.269,0,0,1,4.026,4.095c.1,2.808.1,5.625,0,8.434a4.365,4.365,0,0,1-4.3,4.164c-1.308.054-2.619.031-3.929.015-1.005-.012-1.4-.421-1.406-1.454C645.178,121.632,645.186,119.31,645.186,116.988Zm2.371-6.1v12.234c.862,0,1.671.019,2.48,0a2.383,2.383,0,0,0,2.542-2.425q.1-3.674,0-7.354a2.437,2.437,0,0,0-2.548-2.446C649.25,110.863,648.466,110.889,647.556,110.889Z" transform="translate(-604.235 -108.469)"/>
      <path id="Tracé_3280" data-name="Tracé 3280" d="M593.367,116.848c0-1.341-.03-2.683.006-4.024a4.588,4.588,0,0,1,4.882-4.441,4.535,4.535,0,0,1,4.764,4.448q.068,4.071,0,8.145a4.838,4.838,0,0,1-9.647-.007C593.338,119.6,593.367,118.222,593.367,116.848Zm2.3,0c0,1.309-.035,2.619.009,3.926a2.326,2.326,0,0,0,2.554,2.376,2.291,2.291,0,0,0,2.49-2.334q.071-3.926,0-7.853a2.273,2.273,0,0,0-2.5-2.314,2.309,2.309,0,0,0-2.547,2.37C595.632,114.294,595.663,115.572,595.665,116.848Z" transform="translate(-579.792 -108.355)"/>
      <path id="Tracé_3281" data-name="Tracé 3281" d="M728.024,161.687c0,1.243.019,2.487,0,3.73a4.648,4.648,0,0,1-4.645,4.721,4.592,4.592,0,0,1-5.038-4.393c-.12-2.775-.126-5.565.008-8.34.129-2.687,2.289-4.418,5.094-4.331a4.656,4.656,0,0,1,4.579,4.686C728.046,159.069,728.024,160.379,728.024,161.687Zm-2.321-.077c0-1.277.018-2.554,0-3.83a2.553,2.553,0,0,0-5.083-.173q-.094,3.975,0,7.954a2.55,2.55,0,0,0,5.082-.12C725.724,164.165,725.7,162.887,725.7,161.611Z" transform="translate(-638.693 -129.431)"/>
      <path id="Tracé_3282" data-name="Tracé 3282" d="M669.379,161.576c0-1.341-.027-2.683,0-4.024a4.635,4.635,0,0,1,4.772-4.478,4.543,4.543,0,0,1,4.869,4.345q.1,4.169,0,8.342a4.556,4.556,0,0,1-4.837,4.383,4.636,4.636,0,0,1-4.8-4.446C669.349,164.325,669.379,162.95,669.379,161.576Zm2.307,0c0,1.276-.023,2.553.006,3.828a2.533,2.533,0,0,0,5.057.089q.095-3.924,0-7.852c-.04-1.506-1.06-2.306-2.631-2.274a2.26,2.26,0,0,0-2.422,2.38C671.661,159.025,671.685,160.3,671.686,161.579Z" transform="translate(-615.64 -129.432)"/>
      <path id="Tracé_3283" data-name="Tracé 3283" d="M705.823,124.556c-.352.3-.7.844-1.058.849a1.676,1.676,0,0,1-1.295-.7,13.063,13.063,0,0,1-.864-2.6.772.772,0,0,0-.891-.673c-1.376.034-2.755-.022-4.129.04a1.119,1.119,0,0,0-.792.6c-.329.815-.537,1.679-.8,2.52a1.126,1.126,0,0,1-1.529.823c-.745-.212-.922-.764-.7-1.471,1.521-4.833,3.02-9.673,4.6-14.486a1.708,1.708,0,0,1,1.271-.929,1.665,1.665,0,0,1,1.315.85c1.6,4.841,3.111,9.712,4.642,14.575a2.391,2.391,0,0,1,.058.387Zm-4.175-5.456-1.979-6.442L697.7,119.1Z" transform="translate(-627.104 -108.426)"/>
      <path id="Tracé_3284" data-name="Tracé 3284" d="M672.915,110.885v4.746c1.317,0,2.65-.068,3.97.037a1.764,1.764,0,0,1,1.256.795c.365.751-.233,1.435-1.167,1.453-1.336.027-2.673.007-4.063.007v5.2c1.509,0,3,0,4.495,0,.622,0,1.249-.016,1.866.048a1.011,1.011,0,0,1,.953,1.161,1,1,0,0,1-1.052,1.064c-2.492.014-4.985.034-7.476-.007-.913-.015-1.166-.683-1.165-1.5q.011-5.944,0-11.887c0-.655-.014-1.31,0-1.965.027-.963.412-1.388,1.381-1.4,2.361-.025,4.722-.01,7.083,0,.734,0,1.216.351,1.218,1.11,0,.8-.479,1.149-1.274,1.143C676.956,110.876,674.964,110.885,672.915,110.885Z" transform="translate(-616.189 -108.47)"/>
      <path id="Tracé_3285" data-name="Tracé 3285" d="M769.859,155.674v4.7c1.078,0,2.114,0,3.149,0,.393,0,.787,0,1.178.032a1.017,1.017,0,0,1,1.026,1.1,1.032,1.032,0,0,1-1.087,1.136c-1.048.015-2.1.009-3.146.011h-1.114v5.2c.342.02.688.057,1.035.058q2.556.011,5.112.005a1.051,1.051,0,0,1,1.2,1.125c-.005.725-.457,1.107-1.218,1.1-2.392-.008-4.784,0-7.176,0a1.155,1.155,0,0,1-1.3-1.272q-.024-7.117,0-14.235a1.158,1.158,0,0,1,1.323-1.244c2.359.007,4.719.012,7.078,0,.8-.005,1.291.359,1.285,1.14-.006.8-.554,1.11-1.326,1.1-1.638-.012-3.277,0-4.915,0C770.615,155.627,770.264,155.655,769.859,155.674Z" transform="translate(-661.925 -129.577)"/>
      <path id="Tracé_3286" data-name="Tracé 3286" d="M601.1,162.635V167.9c1.433,0,2.83,0,4.227,0,.721,0,1.443-.018,2.162.026a.925.925,0,0,1,.939,1.127c-.087.4-.6,1-.934,1.016-2.553.087-5.111.08-7.665.033-.883-.016-1.075-.722-1.075-1.475q0-3.682,0-7.364c0-2.095-.008-4.189,0-6.284.007-1.235.363-1.593,1.568-1.6,2.228-.007,4.457.015,6.685-.011.8-.01,1.369.222,1.456,1.082.073.73-.474,1.155-1.469,1.16-1.928.011-3.855,0-5.864,0v4.748c1.143,0,2.248,0,3.354,0a9.336,9.336,0,0,1,.981.037,1.016,1.016,0,0,1,.993,1.126,1.041,1.041,0,0,1-1.124,1.1C603.963,162.639,602.59,162.635,601.1,162.635Z" transform="translate(-582.336 -129.572)"/>
      <path id="Tracé_3287" data-name="Tracé 3287" d="M720.731,115.342c0-1.832.011-3.665-.005-5.5-.007-.777.176-1.38,1.081-1.439.781-.051,1.2.418,1.2,1.424.015,3.533-.006,7.067.017,10.6a2.542,2.542,0,1,0,5.074.067c.023-3.37.007-6.74.008-10.11,0-.294-.013-.591.016-.882a1.069,1.069,0,0,1,1.233-1.095,1.035,1.035,0,0,1,1.051,1.166q0,2.012,0,4.025c0,2.323.013,4.646,0,6.969a4.836,4.836,0,1,1-9.672-.025C720.717,118.81,720.731,117.076,720.731,115.342Z" transform="translate(-639.862 -108.364)"/>
      <path id="Tracé_3288" data-name="Tracé 3288" d="M750.983,114c.74-1.49,1.388-2.794,2.037-4.1.146-.293.293-.585.45-.871a1.1,1.1,0,0,1,1.573-.542,1.059,1.059,0,0,1,.466,1.58c-.94,1.906-1.851,3.828-2.834,5.712a1.656,1.656,0,0,0,.02,1.723c1.012,1.943,1.961,3.919,2.938,5.88.347.7.554,1.38-.3,1.865-.675.386-1.3.079-1.772-.846-.836-1.652-1.659-3.311-2.586-5.165l-2.266,4.525c-.161.321-.311.65-.49.961a1.111,1.111,0,0,1-1.578.534,1.062,1.062,0,0,1-.451-1.585c.426-.919.889-1.822,1.34-2.73.611-1.23,1.264-2.441,1.817-3.7a1.7,1.7,0,0,0,0-1.25c-.881-1.9-1.827-3.765-2.77-5.633-.361-.716-.512-1.384.305-1.87.661-.394,1.292-.076,1.767.861C749.4,110.832,750.137,112.315,750.983,114Z" transform="translate(-651.791 -108.33)"/>
      <path id="Tracé_3289" data-name="Tracé 3289" d="M697.045,162.807c0,2.081-.012,4.01.006,5.939.007.816-.2,1.45-1.132,1.523-.787.061-1.187-.472-1.188-1.542q0-6.876,0-13.752c0-1.245.335-1.581,1.558-1.589,1.18-.007,2.361-.014,3.541,0a4.481,4.481,0,0,1,4.539,4.553,4.557,4.557,0,0,1-4.459,4.862C699,162.835,698.086,162.807,697.045,162.807Zm.045-2.322c1.073,0,2.082.055,3.083-.015a2.139,2.139,0,0,0,1.881-2.163c.086-1.311-.526-2.409-1.625-2.546a27.474,27.474,0,0,0-3.338-.03Z" transform="translate(-627.601 -129.575)"/>
      <path id="Tracé_3290" data-name="Tracé 3290" d="M746.963,167.777c1.6,0,3.069,0,4.537,0,.328,0,.657-.008.983.017a.994.994,0,0,1,.994,1.11.973.973,0,0,1-1.017,1.085c-2.229.021-4.458.025-6.687,0a1.079,1.079,0,0,1-1.121-1.223q-.013-7.219,0-14.437a1.081,1.081,0,0,1,1.214-1.22c.812.029,1.1.591,1.1,1.345q0,5.941,0,11.883Z" transform="translate(-651.143 -129.449)"/>
      <path id="Tracé_3291" data-name="Tracé 3291" d="M626.012,153.387c1.113,0,2.226.008,3.339,0,.741-.008,1.215.311,1.243,1.07.03.818-.459,1.147-1.242,1.173-.706.023-1.739-.154-2.032.221-.375.48-.18,1.425-.182,2.17-.011,3.433,0,6.866-.006,10.3,0,.294,0,.589-.016.882a1.125,1.125,0,0,1-2.248-.05q-.009-2.452-.008-4.9c0-2.551-.031-5.1.018-7.65.015-.8-.256-1.06-1.012-.978-.388.042-.785,0-1.178.006-.768.014-1.307-.293-1.305-1.112,0-.8.5-1.14,1.29-1.128C623.786,153.4,624.9,153.387,626.012,153.387Z" transform="translate(-593.01 -129.577)"/>
      <path id="Tracé_3292" data-name="Tracé 3292" d="M607.765,145.334a3.151,3.151,0,0,1-.772.78c-1.183.619-2.4,1.169-3.621,1.721-.674.306-1.306.265-1.654-.489a1.076,1.076,0,0,1,.634-1.525c1.257-.619,2.519-1.233,3.8-1.791C607.007,143.662,607.8,144.216,607.765,145.334Z" transform="translate(-583.676 -125.114)"/>
    </g>
    <g id="Groupe_1652" data-name="Groupe 1652" transform="translate(413.035 64.633)">
      <path id="Tracé_3293" data-name="Tracé 3293" d="M475.615,67.751c.141.03.182-.058.2-.17a1.641,1.641,0,0,0,.53-2.083,1.486,1.486,0,0,0-1.611-.852c-1.1.12-1.58,1.054-1.224,2.353a4.668,4.668,0,0,1-.053.585q-1.522,7.032-3.052,14.061-2.8,12.964-5.6,25.928c-.629,2.9-1.3,5.788-1.952,8.681a15.325,15.325,0,0,1-.473-2.694q-1.344-8.812-2.694-17.622c-.378-2.451-.783-4.9-1.176-7.347a1.62,1.62,0,0,0-1.18-2.614,1.483,1.483,0,0,0-1.511.869,1.642,1.642,0,0,0,.539,2.081,6.533,6.533,0,0,0,.027.783c.75,4.9,1.537,9.8,2.247,14.706a62.147,62.147,0,0,1,.87,6.393c-.969-1.923-1.516-4.008-2.316-6-.825-2.05-1.4-4.194-2.38-6.184a6.1,6.1,0,0,0,.131-.667,1.545,1.545,0,0,0-.877-1.611,1.5,1.5,0,0,0-1.738.206,1.582,1.582,0,0,0-.463,1.781c.144.5.613.74.971,1.065-.1.349.1.641.2.939,1.209,3.313,2.435,6.62,3.651,9.931.11.3.313.585.22.936-.758-.646-1.008-1.65-1.668-2.366a5.657,5.657,0,0,0-.045-.77,1.547,1.547,0,0,0-1.9-1.2,1.581,1.581,0,0,0-1.212,1.819c.048.248.132.489.2.733-.538-.106-.732-.6-1.047-.947q-4.028-4.442-8.034-8.905a1.635,1.635,0,0,0-1.317-1.715,1.571,1.571,0,0,0-1.861,1.2c-.2.976.325,1.658,1.534,1.983,1.486,1.692,3,3.357,4.445,5.087.807.969,1.894,1.724,2.352,2.97a2.884,2.884,0,0,1-1.038-.718L431.6,94.932a1.582,1.582,0,0,0-1.469-1.443,1.475,1.475,0,0,0-1.577.9,1.51,1.51,0,0,0,.31,1.79,1.878,1.878,0,0,0,1.325.518c3.883,3.345,7.78,6.674,11.639,10.046a11.331,11.331,0,0,1,2.615,2.46,1.591,1.591,0,0,0-1.32,1.819c-2.354-.97-4.48-2.376-6.742-3.522s-4.4-2.527-6.734-3.541a5.348,5.348,0,0,0-.456-.737,1.584,1.584,0,0,0-2.743.952,1.535,1.535,0,0,0,.834,1.524,1.942,1.942,0,0,0,1.323.16c2.4,1.32,4.816,2.627,7.21,3.965,2.336,1.3,4.756,2.457,7.022,3.886-.034.041-.068.082-.1.122-.488-.164-.974-.337-1.465-.49-1.285-.4-2.426-1.211-3.811-1.319l0-.006c.048-.147-.056-.184-.161-.221a1.624,1.624,0,0,0-1.956-.913,1.509,1.509,0,0,0-1.126,1.346,1.635,1.635,0,0,0,2.219,1.69c3.1,1.223,6.216,2.425,9.307,3.677a22.589,22.589,0,0,1,3.93,1.688c-1.538.03-2.983-.585-4.508-.646a1.725,1.725,0,0,0-2.175-.542,1.5,1.5,0,0,0-.822,1.623c.134,1.155,1.167,1.6,2.558,1.109l2.641.561c-2.583-.1-5.165-.211-7.749-.287-5.631-.166-11.264-.288-16.894-.478-2.257-.076-4.51-.241-6.77-.121a1.946,1.946,0,0,0-1.6-.564,1.543,1.543,0,0,0-1.269,1.21,1.49,1.49,0,0,0,.529,1.583,1.605,1.605,0,0,0,2,.047c4.519.026,9.033.216,13.548.383,6.576.243,13.154.425,19.731.622,3.175.1,6.351.16,9.526.253a7.654,7.654,0,0,1,1.057.174l-7.982,7.009a1.628,1.628,0,0,0-1.522,2.485,1.5,1.5,0,0,0,1.592.7,1.583,1.583,0,0,0,1.356-1.55c1.742-1.239,3.242-2.763,4.893-4.109.327-.266.555-.738,1.1-.64.115.429-.167.746-.321,1.092q-2.876,6.459-5.763,12.912c-1,.687-1.316,1.471-.878,2.278a1.533,1.533,0,0,0,1.912.784c.812-.221,1.157-.961,1.022-2.051.3-.683.582-1.375.905-2.046.983-2.042,1.749-4.186,2.879-6.159a1.573,1.573,0,0,0,1.96-.17,1.687,1.687,0,0,0,.364-1.949l.479-1.3a1.97,1.97,0,0,1,.161,1.143q.051,4.159.087,8.319c-.736,1.341-.347,2.542.888,2.726a1.5,1.5,0,0,0,1.6-.687,1.719,1.719,0,0,0-.2-2.072c.007-.458.026-.915.02-1.373q-.077-6.18-.161-12.359c.193.259.4.51.578.778q1.918,2.834,3.829,5.674c.018.16.039.32.053.481a1.581,1.581,0,0,0,3.063.466,1.515,1.515,0,0,0-.713-1.916,5.085,5.085,0,0,0-.515-.274c-.209-.361-.415-.724-.629-1.083a31.616,31.616,0,0,1-2.348-3.784c1.277.848,2.543,1.712,3.832,2.542,2.137,1.376,4.152,2.936,6.364,4.2a4.869,4.869,0,0,0,.4.772,1.583,1.583,0,0,0,2.6-1.8,1.953,1.953,0,0,0-1.865-.815c-.248-.2-.481-.427-.745-.607q-3.415-2.329-6.839-4.644c.721-.181,1.3.445,2,.359a5.83,5.83,0,0,0,.575.663,1.586,1.586,0,0,0,2.3-2.149,1.7,1.7,0,0,0-2.116-.492c-.3-.126-.585-.271-.889-.376q-2.825-.974-5.655-1.934c1.589-.346,3.179-.686,4.767-1.038q5.333-1.179,10.664-2.368a1.656,1.656,0,0,0,2.195-.382,1.489,1.489,0,0,0,.084-1.818c-.617-1-1.8-.962-2.768.073-1.524.15-2.981.645-4.485.88-.879.137-1.71.657-2.649.373.547-1.362.151-2.136-1.269-2.484.241-.214.469-.447.727-.639q4.259-3.184,8.525-6.357a4.075,4.075,0,0,0,.859-.139,1.47,1.47,0,0,0,.99-1.333,1.5,1.5,0,0,0-.827-1.534,1.546,1.546,0,0,0-1.662.095,2.432,2.432,0,0,0-.743,1.12c-1.225.7-2.177,1.8-3.5,2.356a1.846,1.846,0,0,0-.889-1.531c2.387-2.683,4.8-5.346,7.147-8.059a10.457,10.457,0,0,0,2.18-2.688,1.6,1.6,0,0,0,1.7-1.547,1.5,1.5,0,0,0-1.18-1.6c-1.008-.305-1.788.341-2.021,1.654-.093.09-.191.176-.278.272q-3.252,3.6-6.5,7.211c-.756-1.658-1.793-1.845-3.146-.566-.084-.288.092-.5.216-.725,1.306-2.37,2.62-4.735,3.919-7.109q3.168-5.788,6.321-11.585a1.6,1.6,0,0,0,1.138-1.9,1.515,1.515,0,0,0-1.329-1.246,1.675,1.675,0,0,0-1.781,2.164c-.162.243-.342.475-.482.73q-6.827,12.4-13.658,24.788a5.366,5.366,0,0,1-1.234,1.935,1.852,1.852,0,0,1,.191-1.043c1.02-3.131,2.051-6.259,3.066-9.392q1.84-5.674,3.661-11.354c.942-.808,1.168-1.485.706-2.26a1.523,1.523,0,0,0-1.936-.71c-.851.275-1.132,1.035-.888,2.277q-1.683,5.09-3.365,10.179c-.111.334-.144.708-.459.943-.032-.083-.105-.176-.089-.249,1.9-8.73,3.823-17.456,5.694-26.193a19.275,19.275,0,0,0,.85-4.692Z" transform="translate(-413.035 -64.633)"/>
      <path id="Tracé_3294" data-name="Tracé 3294" d="M474.824,132.2a62.13,62.13,0,0,0-.87-6.393c-.71-4.908-1.5-9.8-2.247-14.706a6.428,6.428,0,0,1-.027-.783,1.86,1.86,0,0,0,2.151-.337c.393,2.449.8,4.9,1.176,7.347q1.358,8.809,2.694,17.622a15.3,15.3,0,0,0,.473,2.693q.119.709.238,1.421c-.266,1.267-.854,2.528-.062,3.812a1.74,1.74,0,0,0-1.925.937l-1-1.6a2.079,2.079,0,0,0-1.127-1.72q-6.324-4.327-12.659-8.637a1.7,1.7,0,0,0-1.875-1.264,11.381,11.381,0,0,0-2.617-2.46c-3.859-3.373-7.756-6.7-11.639-10.046a1.766,1.766,0,0,0,1.411-1.761l15.717,13.447a2.863,2.863,0,0,0,1.034.715l.236.155a.225.225,0,0,0,.292.212l-.008-.007c-.023.159.055.216.2.206l-.008-.009c-.014.148.066.207.2.209l-.009-.012c.007.154.106.218.242.243,2.944,2.866,6.206,5.361,9.4,8.231,0-.731-.495-1.091-.393-1.6.169.078.383.26.5.211.193-.082.115-.34.043-.508a2.858,2.858,0,0,1-.359-1.088,3.2,3.2,0,0,0,1.005-.936c.507.521.47.065.417-.254C475.245,134.417,475.028,133.308,474.824,132.2Z" transform="translate(-428.349 -86.019)"/>
      <path id="Tracé_3295" data-name="Tracé 3295" d="M474.011,155.917l1,1.6a2.617,2.617,0,0,0,.2,1.58l-.2,0-.167-.192-.525-.31a39.031,39.031,0,0,0-4.8-1.887,42.362,42.362,0,0,0-5.316-2.138.593.593,0,0,0-.635-.2l.012,0a22.586,22.586,0,0,0-3.93-1.688c-3.092-1.252-6.2-2.454-9.307-3.677a2.192,2.192,0,0,0,1.026-1.9c1.385.108,2.526.92,3.811,1.319.491.153.977.326,1.466.489.086.107.241.19.307.076.092-.158-.117-.145-.205-.2-2.266-1.429-4.686-2.582-7.022-3.886-2.394-1.338-4.806-2.645-7.21-3.964a1.925,1.925,0,0,0,1.042-1.9c2.332,1.014,4.472,2.394,6.734,3.541s4.388,2.552,6.742,3.522a1.692,1.692,0,0,0,1.954,1.363c2.108,1.466,4.2,2.953,6.332,4.387a12.811,12.811,0,0,0,2.666,1.6C470.015,154.221,472,155.094,474.011,155.917Z" transform="translate(-426.936 -99.73)"/>
      <path id="Tracé_3296" data-name="Tracé 3296" d="M507.568,119.788q-.119-.711-.238-1.421c.652-2.892,1.323-5.782,1.952-8.68q2.813-12.961,5.6-25.928,1.52-7.032,3.052-14.061a4.662,4.662,0,0,0,.053-.585,1.97,1.97,0,0,0,2.085.755,19.277,19.277,0,0,1-.85,4.692c-1.872,8.737-3.8,17.462-5.694,26.193-.016.073.058.165.089.248a65.1,65.1,0,0,1-1.971,6.439C510.321,111.566,508.931,115.673,507.568,119.788Z" transform="translate(-457.506 -66.746)"/>
      <path id="Tracé_3297" data-name="Tracé 3297" d="M532.207,99.982q-3.159,5.793-6.32,11.585c-1.3,2.374-2.613,4.739-3.919,7.109-.124.225-.3.437-.216.725l.011-.023a8.476,8.476,0,0,0-1.549,2.688c.67-.346.9-1.064,1.411-1.531a1.761,1.761,0,0,0,1.8,1.253l-.3.377c-.2.026-.237.161-.227.329l-.18.231c-.393.016-.546.222-.477.6-.025.03-.051.06-.078.088-.3-.126-.411.138-.546.288-1.852,2.052-3.712,4.1-5.532,6.177a6.392,6.392,0,0,0-1.666,2.826l-2.394,2.341c.718-2.784,1.671-5.491,2.652-8.189.165-.092.258-.217.18-.414l-.006.01a5.367,5.367,0,0,0,1.234-1.935q6.849-12.383,13.658-24.788c.14-.255.321-.487.482-.729A1.878,1.878,0,0,0,532.207,99.982Zm-12.1,22.384a.762.762,0,0,0-.156-.039c-.024,0-.049.036-.073.057.04.033.08.091.119.09S520.065,122.408,520.106,122.366Z" transform="translate(-459.724 -80.843)"/>
      <path id="Tracé_3298" data-name="Tracé 3298" d="M457.914,171.433a39.078,39.078,0,0,1,4.8,1.886,2.831,2.831,0,0,1-.936.7,7.7,7.7,0,0,0-1.058-.174c-3.175-.093-6.351-.157-9.526-.253-6.577-.2-13.156-.38-19.731-.622-4.515-.167-9.029-.356-13.548-.382a1.754,1.754,0,0,0,.343-2.276c2.259-.12,4.513.045,6.77.121,5.63.19,11.263.312,16.894.478,2.584.076,5.166.19,7.75.288C452.417,171.328,455.172,171.158,457.914,171.433Z" transform="translate(-415.335 -114.456)"/>
      <path id="Tracé_3299" data-name="Tracé 3299" d="M512.268,131.3c-.981,2.7-1.934,5.406-2.651,8.188a7.776,7.776,0,0,0-.844,2.826,1.43,1.43,0,0,1,1.226-.582,1.961,1.961,0,0,0,1.368-.619,13.89,13.89,0,0,1,4.977-2.941,1.762,1.762,0,0,0,1.077,2.111l-7.137,3.209-.683.379a2.849,2.849,0,0,0-1.061.357,1.874,1.874,0,0,0-1.234-2.092c-.792-1.284-.2-2.545.062-3.812,1.363-4.115,2.754-8.222,4.079-12.349a65.055,65.055,0,0,0,1.971-6.439c.315-.235.349-.608.459-.942q1.684-5.089,3.365-10.179a1.832,1.832,0,0,0,2.118.692q-1.829,5.677-3.661,11.354c-1.016,3.133-2.046,6.26-3.066,9.392a1.851,1.851,0,0,0-.191,1.043l.006-.01C512.227,130.952,512.239,131.122,512.268,131.3Z" transform="translate(-457.307 -85.281)"/>
      <path id="Tracé_3300" data-name="Tracé 3300" d="M507.5,175.873a2.849,2.849,0,0,1,1.062-.357c.08.141.125.333.244.413,1.776,1.188,3.562,2.362,5.347,3.539q3.42,2.32,6.839,4.643c.264.18.5.4.744.607a2.045,2.045,0,0,0-1.131,1.841c-2.212-1.261-4.228-2.821-6.364-4.2-1.289-.83-2.555-1.693-3.832-2.542l.013.008-.146-.147c-.527-.369-1.038-.766-1.586-1.1-.485-.3-1.034-1.018-1.438-.794-.509.283-.169,1.1-.16,1.691q.081,6.18.161,12.359c.006.458-.013.915-.02,1.373a1.83,1.83,0,0,0-2.282.033q-.041-4.159-.087-8.319a1.958,1.958,0,0,0-.161-1.142l.08-.483,1.865-6.435Z" transform="translate(-456.268 -116.927)"/>
      <path id="Tracé_3301" data-name="Tracé 3301" d="M518.009,155.956a13.89,13.89,0,0,0-4.977,2.941,1.961,1.961,0,0,1-1.368.619,1.43,1.43,0,0,0-1.226.582,7.776,7.776,0,0,1,.844-2.826l2.394-2.34c1.389-1.158,2.66-2.441,3.928-3.727a.445.445,0,0,0,.439-.376l-.005.006a.294.294,0,0,0,.2-.4l-.006.006c1.068-.361,1.668-1.327,2.532-1.952.3,1.06.949,1.653,1.794,1.547a1.521,1.521,0,0,0,1.423-1.558c1.319-.559,2.272-1.658,3.5-2.356a1.768,1.768,0,0,0,1.384,1.792q-4.263,3.177-8.525,6.357c-.257.192-.485.425-.726.639A1.688,1.688,0,0,0,518.009,155.956Z" transform="translate(-458.972 -103.066)"/>
      <path id="Tracé_3302" data-name="Tracé 3302" d="M474.054,140.437l-.236-.155c-.454-1.243-1.541-2-2.348-2.967-1.44-1.729-2.959-3.395-4.444-5.087a1.767,1.767,0,0,0,1.644-1.466q4.014,4.455,8.034,8.905c.314.347.509.841,1.047.947l-.046,0c-.009.147.053.225.208.213l-.012-.014c.3.826,1.041,1.294,1.56,1.942a18.662,18.662,0,0,0,2.513,2.582c.045.534.552.7.836,1.04l.2.151v0l.694,1.193.285.2-.014-.012c-.1.509.4.869.393,1.6-3.193-2.87-6.455-5.365-9.4-8.231l-.242-.243.009.012-.2-.209.008.009-.2-.206.008.007A.24.24,0,0,0,474.054,140.437Z" transform="translate(-438.498 -95.821)"/>
      <path id="Tracé_3303" data-name="Tracé 3303" d="M527.728,138.3c-.864.625-1.464,1.59-2.532,1.952a3.77,3.77,0,0,1,.749-1.226,27.058,27.058,0,0,0,2.434-3.578c.027-.029.053-.058.077-.088a.563.563,0,0,0,.478-.6l.18-.231c.185-.035.23-.166.227-.33l.3-.377A1.79,1.79,0,0,0,531.1,132q3.25-3.605,6.5-7.211c.087-.1.185-.182.278-.272a1.736,1.736,0,0,0,1.5,1.494,10.46,10.46,0,0,1-2.18,2.688c-2.351,2.714-4.76,5.377-7.148,8.059C528.528,136.566,528.034,136.893,527.728,138.3Z" transform="translate(-465.932 -92.875)"/>
      <path id="Tracé_3304" data-name="Tracé 3304" d="M495.009,141.156c.2,1.111.421,2.22.607,3.335.053.319.089.775-.417.254.139-1.8-.486-2.411-2.223-2.154l-.563-1.036c.093-.351-.11-.636-.22-.936-1.215-3.311-2.441-6.618-3.651-9.931-.108-.3-.309-.59-.2-.939a2.246,2.246,0,0,0,1.976-.773c.979,1.99,1.556,4.135,2.38,6.184C493.492,137.148,494.04,139.234,495.009,141.156Z" transform="translate(-448.534 -94.978)"/>
      <path id="Tracé_3305" data-name="Tracé 3305" d="M513.3,170.219l7.137-3.209a1.8,1.8,0,0,0,1.8-.67c.938.284,1.77-.236,2.649-.373,1.5-.235,2.961-.73,4.485-.879a1.875,1.875,0,0,0,.49,2.126q-5.332,1.185-10.664,2.368c-1.588.351-3.178.692-4.767,1.038A2.024,2.024,0,0,1,513.3,170.219Z" transform="translate(-460.321 -112.009)"/>
      <path id="Tracé_3306" data-name="Tracé 3306" d="M496.455,176.623l.167.192-2.3,8.134c-1.078,1.016-1.111,1.7-.133,2.775-1.128,1.975-1.894,4.119-2.877,6.161-.323.672-.605,1.364-.905,2.046a1.793,1.793,0,0,0-2.056-1.011q2.883-6.455,5.763-12.912c.154-.347.436-.664.321-1.092l0,.014c.265-.068.245-.257.193-.458A23.486,23.486,0,0,0,496.455,176.623Z" transform="translate(-448.553 -117.449)"/>
      <path id="Tracé_3307" data-name="Tracé 3307" d="M495.262,176.346a23.486,23.486,0,0,1-1.835,3.849c-.136.123-.349.213-.193.458l0-.014c-.546-.1-.775.374-1.1.64-1.651,1.345-3.151,2.87-4.893,4.109a1.635,1.635,0,0,0-1.426-1.638l7.983-7.009a2.827,2.827,0,0,0,.936-.7Z" transform="translate(-447.36 -117.173)"/>
      <path id="Tracé_3308" data-name="Tracé 3308" d="M509.119,181.468c-.008-.59-.349-1.409.16-1.691.4-.224.953.5,1.438.794.548.335,1.059.731,1.586,1.1l.146.147-.013-.008a31.636,31.636,0,0,0,2.348,3.784c.214.359.42.722.63,1.083a1.711,1.711,0,0,0-1.888,1.243q-1.914-2.838-3.829-5.674C509.516,181.979,509.312,181.727,509.119,181.468Z" transform="translate(-458.293 -118.917)"/>
      <path id="Tracé_3309" data-name="Tracé 3309" d="M483.9,169.807c-2.742-.275-5.5-.1-8.244-.229l-2.642-.561a1.886,1.886,0,0,0,.44-2.189c1.525.06,2.97.675,4.508.646l-.012,0c.145.277.415.158.635.2A42.363,42.363,0,0,1,483.9,169.807Z" transform="translate(-441.322 -112.83)"/>
      <path id="Tracé_3310" data-name="Tracé 3310" d="M512.69,174.8a2.024,2.024,0,0,0,1.127.4q2.827.965,5.654,1.934c.3.1.593.249.889.376a2.092,2.092,0,0,0-.76,1.979c-.7.087-1.28-.539-2-.359-1.784-1.177-3.57-2.35-5.347-3.539-.119-.08-.164-.273-.244-.413Z" transform="translate(-459.712 -116.589)"/>
      <path id="Tracé_3311" data-name="Tracé 3311" d="M499.649,185.121l2.3-8.134.2,0a1.914,1.914,0,0,0,.984.636c-.122.519-.9.537-.872,1.2.067,1.72.092,3.441.133,5.162-.026.162-.053.324-.08.485l-.479,1.3A1.722,1.722,0,0,0,499.649,185.121Z" transform="translate(-453.883 -117.621)"/>
      <path id="Tracé_3312" data-name="Tracé 3312" d="M492.939,150.671l.564,1.036a1.951,1.951,0,0,0-.965,1.9,18.662,18.662,0,0,1-2.513-2.582c.047-.6-.469-.971-.6-1.5a1.833,1.833,0,0,0,1.846-1.225C491.931,149.021,492.18,150.024,492.939,150.671Z" transform="translate(-449.061 -104.094)"/>
      <path id="Tracé_3313" data-name="Tracé 3313" d="M496.551,107.643a1.86,1.86,0,0,1-2.151.337,1.643,1.643,0,0,1-.54-2.082,1.483,1.483,0,0,1,1.511-.869A1.62,1.62,0,0,1,496.551,107.643Z" transform="translate(-451.07 -83.684)"/>
      <path id="Tracé_3314" data-name="Tracé 3314" d="M489.389,126.775a2.246,2.246,0,0,1-1.976.772c-.358-.324-.827-.562-.971-1.065a1.582,1.582,0,0,1,.463-1.781,1.5,1.5,0,0,1,1.738-.206,1.545,1.545,0,0,1,.877,1.611A6.092,6.092,0,0,1,489.389,126.775Z" transform="translate(-447.611 -92.778)"/>
      <path id="Tracé_3315" data-name="Tracé 3315" d="M415.955,169.822a1.754,1.754,0,0,1-.343,2.276,1.605,1.605,0,0,1-2-.047,1.49,1.49,0,0,1-.529-1.583,1.543,1.543,0,0,1,1.269-1.21A1.946,1.946,0,0,1,415.955,169.822Z" transform="translate(-413.035 -113.96)"/>
      <path id="Tracé_3316" data-name="Tracé 3316" d="M544.077,146.654a1.768,1.768,0,0,1-1.384-1.792,2.433,2.433,0,0,1,.743-1.12,1.546,1.546,0,0,1,1.662-.095,1.5,1.5,0,0,1,.827,1.534,1.47,1.47,0,0,1-.99,1.333A4.075,4.075,0,0,1,544.077,146.654Z" transform="translate(-474.183 -101.804)"/>
      <path id="Tracé_3317" data-name="Tracé 3317" d="M456.359,153.229a2.192,2.192,0,0,1-1.026,1.9,1.635,1.635,0,0,1-2.219-1.69,1.509,1.509,0,0,1,1.126-1.346A1.624,1.624,0,0,1,456.2,153c0,.115.006.221.161.221Z" transform="translate(-431.931 -105.845)"/>
      <path id="Tracé_3318" data-name="Tracé 3318" d="M548.406,98.031a1.878,1.878,0,0,1-1.972-.979,1.675,1.675,0,0,1,1.781-2.164,1.515,1.515,0,0,1,1.329,1.246A1.6,1.6,0,0,1,548.406,98.031Z" transform="translate(-475.923 -78.893)"/>
      <path id="Tracé_3319" data-name="Tracé 3319" d="M529.481,67.755A1.97,1.97,0,0,1,527.4,67c-.357-1.3.128-2.233,1.224-2.353a1.487,1.487,0,0,1,1.611.852,1.641,1.641,0,0,1-.531,2.083c-.1.013-.2.031-.2.17Z" transform="translate(-466.915 -64.633)"/>
      <path id="Tracé_3320" data-name="Tracé 3320" d="M528.51,106.98a1.832,1.832,0,0,1-2.118-.692c-.244-1.243.037-2,.888-2.278a1.523,1.523,0,0,1,1.936.71C529.678,105.495,529.452,106.172,528.51,106.98Z" transform="translate(-466.456 -83.155)"/>
      <path id="Tracé_3321" data-name="Tracé 3321" d="M487.392,211.222a1.793,1.793,0,0,1,2.056,1.011c.134,1.09-.21,1.829-1.022,2.051a1.533,1.533,0,0,1-1.912-.784C486.077,212.692,486.391,211.909,487.392,211.222Z" transform="translate(-447.598 -133.751)"/>
      <path id="Tracé_3322" data-name="Tracé 3322" d="M517.565,194.112a1.711,1.711,0,0,1,1.888-1.243,5.122,5.122,0,0,1,.514.274,1.515,1.515,0,0,1,.713,1.916,1.581,1.581,0,0,1-3.063-.466C517.6,194.432,517.583,194.272,517.565,194.112Z" transform="translate(-462.333 -125.108)"/>
      <path id="Tracé_3323" data-name="Tracé 3323" d="M445.31,120.68a1.766,1.766,0,0,1-1.411,1.761,1.878,1.878,0,0,1-1.325-.518,1.51,1.51,0,0,1-.31-1.79,1.475,1.475,0,0,1,1.577-.9A1.582,1.582,0,0,1,445.31,120.68Z" transform="translate(-426.741 -90.381)"/>
      <path id="Tracé_3324" data-name="Tracé 3324" d="M441.623,137.93a1.581,1.581,0,0,1-2.365,1.738,1.535,1.535,0,0,1-.834-1.524,1.584,1.584,0,0,1,2.743-.952A5.342,5.342,0,0,1,441.623,137.93Z" transform="translate(-425.006 -98.609)"/>
      <path id="Tracé_3325" data-name="Tracé 3325" d="M504.843,208.7a1.83,1.83,0,0,1,2.282-.033,1.719,1.719,0,0,1,.2,2.072,1.5,1.5,0,0,1-1.6.687C504.5,211.237,504.107,210.037,504.843,208.7Z" transform="translate(-456.158 -132.379)"/>
      <path id="Tracé_3326" data-name="Tracé 3326" d="M484.228,190.635a1.635,1.635,0,0,1,1.426,1.638,1.583,1.583,0,0,1-1.356,1.55,1.5,1.5,0,0,1-1.592-.7A1.628,1.628,0,0,1,484.228,190.635Z" transform="translate(-445.771 -124.058)"/>
      <path id="Tracé_3327" data-name="Tracé 3327" d="M490.077,146.514a1.833,1.833,0,0,1-1.846,1.225l-.961-.444.012.014c.034-.172.006-.283-.208-.213l.046,0c-.068-.244-.152-.485-.2-.733a1.581,1.581,0,0,1,1.212-1.819,1.547,1.547,0,0,1,1.9,1.2A5.647,5.647,0,0,1,490.077,146.514Z" transform="translate(-447.867 -102.303)"/>
      <path id="Tracé_3328" data-name="Tracé 3328" d="M467.263,129.2a1.767,1.767,0,0,1-1.644,1.466c-1.209-.325-1.737-1.007-1.534-1.983a1.571,1.571,0,0,1,1.861-1.2A1.635,1.635,0,0,1,467.263,129.2Z" transform="translate(-437.09 -94.26)"/>
      <path id="Tracé_3329" data-name="Tracé 3329" d="M534.8,194.773a2.045,2.045,0,0,1,1.131-1.841,1.954,1.954,0,0,1,1.866.815,1.583,1.583,0,0,1-2.6,1.8A4.857,4.857,0,0,1,534.8,194.773Z" transform="translate(-470.459 -125.141)"/>
      <path id="Tracé_3330" data-name="Tracé 3330" d="M526.355,181.763a2.093,2.093,0,0,1,.76-1.979,1.7,1.7,0,0,1,2.116.492,1.586,1.586,0,0,1-2.3,2.149A5.831,5.831,0,0,1,526.355,181.763Z" transform="translate(-466.467 -118.864)"/>
      <path id="Tracé_3331" data-name="Tracé 3331" d="M471.158,166.164a1.886,1.886,0,0,1-.44,2.189c-1.391.492-2.424.047-2.558-1.109a1.5,1.5,0,0,1,.822-1.623A1.725,1.725,0,0,1,471.158,166.164Z" transform="translate(-439.026 -112.166)"/>
      <path id="Tracé_3332" data-name="Tracé 3332" d="M533.456,137.426a1.79,1.79,0,0,1-1.467,1.821,1.761,1.761,0,0,1-1.8-1.253l.138-1.157-.011.023C531.663,135.582,532.7,135.768,533.456,137.426Z" transform="translate(-468.284 -98.302)"/>
      <path id="Tracé_3333" data-name="Tracé 3333" d="M498.9,192.237a1.722,1.722,0,0,1,2.193.657,1.687,1.687,0,0,1-.364,1.95,1.573,1.573,0,0,1-1.961.169C497.789,193.94,497.822,193.253,498.9,192.237Z" transform="translate(-453.135 -124.737)"/>
      <path id="Tracé_3334" data-name="Tracé 3334" d="M550.708,124.466a1.736,1.736,0,0,1-1.5-1.494c.234-1.313,1.013-1.96,2.021-1.654a1.5,1.5,0,0,1,1.18,1.6A1.6,1.6,0,0,1,550.708,124.466Z" transform="translate(-477.256 -91.332)"/>
      <path id="Tracé_3335" data-name="Tracé 3335" d="M544.069,166.5a1.875,1.875,0,0,1-.49-2.126c.973-1.036,2.152-1.073,2.769-.074a1.489,1.489,0,0,1-.084,1.818A1.656,1.656,0,0,1,544.069,166.5Z" transform="translate(-474.534 -111.295)"/>
      <path id="Tracé_3336" data-name="Tracé 3336" d="M471.938,152.152a1.692,1.692,0,0,1-1.954-1.363,1.591,1.591,0,0,1,1.321-1.819,1.7,1.7,0,0,1,1.876,1.263A1.875,1.875,0,0,1,471.938,152.152Z" transform="translate(-439.891 -104.404)"/>
      <path id="Tracé_3337" data-name="Tracé 3337" d="M527.609,165.239a1.8,1.8,0,0,1-1.8.67,1.762,1.762,0,0,1-1.077-2.111,1.688,1.688,0,0,1,1.605-1.044C527.76,163.1,528.156,163.878,527.609,165.239Z" transform="translate(-465.697 -110.908)"/>
      <path id="Tracé_3338" data-name="Tracé 3338" d="M529.988,149.182c.306-1.408.8-1.735,2.328-1.543a1.846,1.846,0,0,1,.889,1.531,1.521,1.521,0,0,1-1.423,1.559C530.938,150.836,530.29,150.243,529.988,149.182Z" transform="translate(-468.192 -103.757)"/>
      <path id="Tracé_3339" data-name="Tracé 3339" d="M531.472,70.383c0-.139.1-.157.2-.17C531.654,70.324,531.612,70.413,531.472,70.383Z" transform="translate(-468.891 -67.265)"/>
      <path id="Tracé_3340" data-name="Tracé 3340" d="M459.119,154.1c-.155,0-.164-.106-.161-.221C459.063,153.916,459.166,153.954,459.119,154.1Z" transform="translate(-434.692 -106.723)"/>
      <path id="Tracé_3341" data-name="Tracé 3341" d="M473.685,153.287a1.875,1.875,0,0,0,1.243-1.919q6.33,4.318,12.659,8.638a2.079,2.079,0,0,1,1.127,1.72c-2.007-.824-4-1.7-6.03-2.45a12.81,12.81,0,0,1-2.666-1.6C477.887,156.24,475.793,154.753,473.685,153.287Z" transform="translate(-441.638 -105.539)"/>
      <path id="Tracé_3342" data-name="Tracé 3342" d="M495.315,156.6a1.951,1.951,0,0,1,.965-1.9c1.737-.256,2.362.349,2.223,2.154a3.2,3.2,0,0,1-1,.937l-1.146,0v0c0-.135-.1-.146-.2-.151C495.868,157.293,495.36,157.13,495.315,156.6Z" transform="translate(-451.839 -107.08)"/>
      <path id="Tracé_3343" data-name="Tracé 3343" d="M505.16,175.352a1.913,1.913,0,0,1-.984-.636,2.617,2.617,0,0,1-.2-1.58,1.741,1.741,0,0,1,1.925-.937,1.874,1.874,0,0,1,1.234,2.092l-.852.992Z" transform="translate(-455.904 -115.345)"/>
      <path id="Tracé_3344" data-name="Tracé 3344" d="M497.278,160.594l1.146,0a2.858,2.858,0,0,0,.359,1.088c.072.168.15.425-.043.508-.115.049-.329-.133-.5-.211l.014.012-.285-.2Z" transform="translate(-452.765 -109.889)"/>
      <path id="Tracé_3345" data-name="Tracé 3345" d="M480.327,149.07a.24.24,0,0,1,.292.212A.225.225,0,0,1,480.327,149.07Z" transform="translate(-444.771 -104.453)"/>
      <path id="Tracé_3346" data-name="Tracé 3346" d="M480.859,149.459l.2.206C480.915,149.675,480.836,149.618,480.859,149.459Z" transform="translate(-445.02 -104.638)"/>
      <path id="Tracé_3347" data-name="Tracé 3347" d="M481.233,149.831l.2.209C481.3,150.038,481.219,149.979,481.233,149.831Z" transform="translate(-445.197 -104.814)"/>
      <path id="Tracé_3348" data-name="Tracé 3348" d="M481.6,150.2l.242.243C481.707,150.422,481.608,150.358,481.6,150.2Z" transform="translate(-445.372 -104.99)"/>
      <path id="Tracé_3349" data-name="Tracé 3349" d="M482.99,168.227c-.22-.041-.49.079-.635-.2A.593.593,0,0,1,482.99,168.227Z" transform="translate(-445.727 -113.389)"/>
      <path id="Tracé_3350" data-name="Tracé 3350" d="M469.354,157.5c.088.053.3.04.205.2-.066.114-.221.031-.308-.076C469.287,157.585,469.321,157.544,469.354,157.5Z" transform="translate(-439.548 -108.432)"/>
      <path id="Tracé_3351" data-name="Tracé 3351" d="M524.309,145.178a27.058,27.058,0,0,1-2.434,3.578,3.769,3.769,0,0,0-.749,1.226l.006-.006a.355.355,0,0,0-.2.4l.005-.006c-.263-.011-.355.178-.439.376-1.268,1.286-2.539,2.568-3.928,3.727a6.385,6.385,0,0,1,1.665-2.826c1.819-2.08,3.68-4.126,5.532-6.177C523.9,145.315,524.011,145.052,524.309,145.178Z" transform="translate(-461.862 -102.604)"/>
      <path id="Tracé_3352" data-name="Tracé 3352" d="M529.062,137.564l-.138,1.157c-.513.467-.741,1.186-1.411,1.531A8.478,8.478,0,0,1,529.062,137.564Z" transform="translate(-467.024 -99.029)"/>
      <path id="Tracé_3353" data-name="Tracé 3353" d="M531.83,143.9a.563.563,0,0,1-.478.6C531.285,144.122,531.438,143.916,531.83,143.9Z" transform="translate(-468.828 -102.017)"/>
      <path id="Tracé_3354" data-name="Tracé 3354" d="M532.837,142.839c0,.164-.042.295-.227.33C532.6,143,532.64,142.865,532.837,142.839Z" transform="translate(-469.427 -101.516)"/>
      <path id="Tracé_3355" data-name="Tracé 3355" d="M527.105,143.184c-.041.043-.075.108-.11.108s-.079-.058-.119-.09c.024-.02.05-.057.073-.057A.763.763,0,0,1,527.105,143.184Z" transform="translate(-466.724 -101.661)"/>
      <path id="Tracé_3356" data-name="Tracé 3356" d="M517.039,151.355c-.029-.177-.042-.347.18-.414C517.3,151.139,517.2,151.263,517.039,151.355Z" transform="translate(-462.077 -105.337)"/>
      <path id="Tracé_3357" data-name="Tracé 3357" d="M505.475,178.138l1.127-.069-1.865,6.435c-.041-1.722-.066-3.443-.133-5.163C504.577,178.675,505.353,178.658,505.475,178.138Z" transform="translate(-456.22 -118.131)"/>
      <path id="Tracé_3358" data-name="Tracé 3358" d="M515.4,183.547l-.146-.147Z" transform="translate(-461.242 -120.646)"/>
      <path id="Tracé_3359" data-name="Tracé 3359" d="M524,155.4c.083-.2.176-.386.439-.376A.445.445,0,0,1,524,155.4Z" transform="translate(-465.368 -107.265)"/>
      <path id="Tracé_3360" data-name="Tracé 3360" d="M524.818,154.685a.355.355,0,0,1,.2-.4A.294.294,0,0,1,524.818,154.685Z" transform="translate(-465.752 -106.915)"/>
      <path id="Tracé_3361" data-name="Tracé 3361" d="M487.607,149.783l.961.444c.131.527.646.9.6,1.5C488.648,151.077,487.9,150.609,487.607,149.783Z" transform="translate(-448.204 -104.791)"/>
      <path id="Tracé_3362" data-name="Tracé 3362" d="M498.592,162.853l.285.2Z" transform="translate(-453.385 -110.955)"/>
      <path id="Tracé_3363" data-name="Tracé 3363" d="M496.9,160.314c.1,0,.2.016.2.151Z" transform="translate(-452.586 -109.758)"/>
      <path id="Tracé_3364" data-name="Tracé 3364" d="M487.235,149.386c.213-.069.242.042.208.213C487.288,149.611,487.226,149.533,487.235,149.386Z" transform="translate(-448.028 -104.594)"/>
      <path id="Tracé_3365" data-name="Tracé 3365" d="M499.805,184.366c-.156-.245.057-.336.193-.458C500.05,184.109,500.07,184.3,499.805,184.366Z" transform="translate(-453.931 -120.885)"/>
    </g>
  </g>
</svg>
