<svg id="Close" xmlns="http://www.w3.org/2000/svg" width="27.068" height="27.068" viewBox="0 0 27.068 27.068">
  <path id="Tracé_3152" data-name="Tracé 3152" d="M2.059,3.665H32.2a1.947,1.947,0,0,0,2.058-1.832h0A1.947,1.947,0,0,0,32.2,0H2.059A1.947,1.947,0,0,0,0,1.832H0A1.923,1.923,0,0,0,2.059,3.665Z" transform="translate(2.841 0) rotate(45)"/>
  <path id="Tracé_3153" data-name="Tracé 3153" d="M2.059,0H32.2a1.947,1.947,0,0,1,2.058,1.832h0A1.947,1.947,0,0,1,32.2,3.665H2.059A1.947,1.947,0,0,1,0,1.832H0A1.923,1.923,0,0,1,2.059,0Z" transform="translate(26.819 2.841) rotate(135)"/>
</svg>
