<svg id="noun_menu_500623" xmlns="http://www.w3.org/2000/svg" width="32.263" height="23.972" viewBox="0 0 32.263 23.972">
  <path id="Tracé_3146" data-name="Tracé 3146" d="M51.339,31.376H79.725a1.93,1.93,0,0,0,1.938-1.938h0A1.93,1.93,0,0,0,79.725,27.5H51.339A1.93,1.93,0,0,0,49.4,29.438h0A1.908,1.908,0,0,0,51.339,31.376Z" transform="translate(-49.4 -27.5)"/>
  <path id="Tracé_3147" data-name="Tracé 3147" d="M51.339,59.576H65.083a1.93,1.93,0,0,0,1.938-1.938h0A1.93,1.93,0,0,0,65.083,55.7H51.339A1.93,1.93,0,0,0,49.4,57.638h0A1.907,1.907,0,0,0,51.339,59.576Z" transform="translate(-34.758 -45.58)"/>
  <path id="Tracé_3148" data-name="Tracé 3148" d="M51.3,87.376H72.225a1.93,1.93,0,0,0,1.938-1.938h0A1.93,1.93,0,0,0,72.225,83.5H51.339A1.93,1.93,0,0,0,49.4,85.438h0A1.878,1.878,0,0,0,51.3,87.376Z" transform="translate(-41.9 -63.404)"/>
</svg>
